<svg id="svg" version="1.1" xmlns="http://www.w3.org/2000/svg" xmlns:xlink="http://www.w3.org/1999/xlink" width="400" height="225" viewBox="0, 0, 400,225"><g id="svgg"><path id="path0" d="M116.376 30.105 C 87.710 31.160,69.236 60.753,83.618 82.578 C 88.478 89.953,94.542 94.488,107.822 100.679 C 126.497 109.385,130.171 112.881,128.556 120.412 C 127.191 126.777,119.587 130.350,109.474 129.379 C 102.805 128.739,91.756 123.760,84.637 118.187 C 83.213 117.072,81.998 116.159,81.936 116.158 C 81.841 116.155,77.961 122.567,74.469 128.497 C 73.933 129.407,73.330 130.420,73.129 130.748 C 72.927 131.076,71.741 133.066,70.492 135.170 L 68.221 138.995 68.832 139.513 C 72.191 142.365,82.272 148.149,87.226 150.067 C 88.627 150.609,92.668 151.934,93.641 152.171 C 109.062 155.914,125.768 155.420,135.847 150.920 C 136.218 150.755,137.130 150.367,137.873 150.059 C 151.334 144.481,158.587 132.840,158.580 116.826 C 158.577 111.533,158.504 110.982,157.348 107.597 C 155.318 101.647,150.988 96.309,143.725 90.804 C 138.962 87.193,136.162 85.674,125.718 81.036 C 119.215 78.148,116.795 76.960,113.337 74.961 C 105.950 70.689,103.884 66.625,106.436 61.384 C 108.847 56.432,116.487 53.675,123.731 55.144 C 124.328 55.266,125.627 55.529,126.618 55.730 C 131.233 56.666,137.848 59.270,141.895 61.743 C 143.986 63.021,144.131 63.076,144.371 62.670 C 144.622 62.247,150.246 51.262,153.561 44.723 L 155.252 41.387 153.562 40.247 C 143.911 33.735,128.910 29.643,116.376 30.105 M215.419 30.201 C 196.987 31.170,180.915 40.192,169.692 55.869 C 161.781 66.921,158.569 77.558,158.593 92.628 C 158.616 106.747,161.513 117.389,168.094 127.518 C 180.362 146.404,199.660 155.943,222.935 154.624 C 260.985 152.469,286.347 117.068,278.073 77.659 C 272.778 52.440,250.215 32.227,225.324 30.404 C 220.500 30.051,218.897 30.018,215.419 30.201 M38.149 32.470 C 38.092 32.625,38.018 51.593,37.985 74.620 L 37.925 116.488 37.407 118.289 C 33.799 130.827,21.084 132.163,9.306 121.241 C 8.551 120.542,8.485 120.619,7.483 123.354 C 7.098 124.406,6.586 125.774,6.345 126.393 C 6.105 127.012,5.589 128.379,5.201 129.432 C 4.812 130.484,4.396 131.548,4.277 131.795 C 4.158 132.043,3.742 133.106,3.353 134.159 C 2.593 136.216,2.318 136.933,1.023 140.236 C -0.362 143.770,-0.572 143.280,3.714 146.514 C 12.040 152.796,20.335 155.203,31.666 154.623 C 49.195 153.727,60.531 145.167,64.129 130.107 C 65.319 125.126,65.279 126.948,65.279 77.799 L 65.279 32.189 51.766 32.189 C 41.161 32.189,38.230 32.250,38.149 32.470 M283.849 92.403 L 283.849 152.617 297.468 152.617 L 311.086 152.617 311.090 115.532 C 311.091 95.135,311.180 78.310,311.285 78.143 C 311.531 77.756,311.667 77.905,313.093 80.135 C 313.687 81.064,315.434 83.799,316.977 86.213 C 324.279 97.641,343.268 127.304,344.500 129.207 C 345.262 130.383,346.724 132.662,347.750 134.271 C 348.775 135.881,350.920 139.223,352.516 141.699 C 354.112 144.176,355.727 146.708,356.106 147.327 C 356.484 147.946,357.385 149.364,358.108 150.478 L 359.423 152.504 373.127 152.504 L 386.832 152.504 386.832 92.403 L 386.832 32.302 373.213 32.302 L 359.595 32.302 359.538 69.630 C 359.493 99.325,359.424 106.940,359.200 106.866 C 359.046 106.816,357.789 105.009,356.407 102.852 C 353.307 98.012,342.932 81.778,337.430 73.157 C 335.178 69.629,333.102 66.387,332.817 65.954 C 332.532 65.521,331.849 64.457,331.300 63.590 C 329.570 60.861,327.676 57.895,326.369 55.868 C 325.675 54.792,324.624 53.151,324.035 52.223 C 323.445 51.294,322.734 50.180,322.454 49.747 C 322.174 49.313,321.492 48.250,320.938 47.383 C 319.836 45.657,317.628 42.211,316.829 40.968 C 316.550 40.535,315.968 39.623,315.535 38.942 C 315.103 38.261,314.092 36.688,313.290 35.447 C 312.488 34.206,311.710 32.965,311.563 32.690 L 311.295 32.189 297.572 32.189 L 283.849 32.189 283.849 92.403 M225.661 46.500 C 253.252 50.745,270.437 78.991,261.533 105.459 C 250.354 138.686,206.803 146.836,184.225 119.927 C 180.036 114.935,177.563 110.187,175.282 102.757 C 171.196 89.455,175.226 72.306,185.029 61.275 C 189.603 56.127,197.541 50.507,202.246 49.084 C 202.620 48.970,203.635 48.625,204.502 48.315 C 210.570 46.147,218.787 45.442,225.661 46.500 " stroke="none" fill="#4464fb" fill-rule="evenodd"></path><path id="path1" d="M0.009 71.075 C 0.017 135.490,0.050 142.076,0.367 141.362 C 0.559 140.929,1.207 139.257,1.807 137.648 C 2.407 136.038,3.316 133.658,3.826 132.358 C 4.336 131.058,5.052 129.184,5.415 128.194 C 5.779 127.203,6.179 126.217,6.303 126.002 C 6.426 125.787,6.528 125.483,6.529 125.327 C 6.530 125.170,6.661 124.789,6.820 124.479 C 6.979 124.170,7.394 123.132,7.742 122.172 C 8.442 120.241,8.488 120.204,9.255 120.949 C 13.114 124.698,18.266 127.614,22.060 128.198 C 29.810 129.391,35.578 125.285,37.400 117.276 C 37.617 116.320,37.710 106.486,37.805 74.057 L 37.929 32.077 51.773 32.077 L 65.616 32.077 65.616 76.984 C 65.616 127.960,65.681 126.150,63.604 132.808 C 60.879 141.546,53.440 149.650,46.145 151.829 C 45.836 151.921,45.481 152.075,45.357 152.170 C 44.855 152.556,39.984 153.799,37.029 154.294 C 30.627 155.367,22.327 155.141,17.969 153.774 C 17.557 153.645,16.460 153.316,15.532 153.044 C 11.718 151.923,5.175 148.270,2.002 145.490 C 1.334 144.904,0.611 144.278,0.394 144.097 C 0.019 143.784,0.000 145.729,0.000 184.433 L 0.000 225.098 200.000 225.098 L 400.000 225.098 400.000 112.549 L 400.000 0.000 200.000 0.000 L 0.000 0.000 0.009 71.075 M126.472 30.390 C 129.598 30.857,133.556 31.613,134.721 31.965 C 135.093 32.077,136.308 32.438,137.423 32.767 C 142.907 34.385,148.261 36.569,150.837 38.239 C 151.383 38.592,152.569 39.358,153.474 39.941 C 155.654 41.346,155.679 40.996,153.031 46.216 C 151.751 48.740,149.285 53.605,147.552 57.027 C 145.819 60.449,144.318 63.249,144.218 63.251 C 144.117 63.252,142.936 62.600,141.592 61.803 C 139.541 60.585,135.216 58.526,134.711 58.526 C 134.630 58.526,134.245 58.381,133.855 58.205 C 119.912 51.904,105.909 55.502,105.909 65.386 C 105.909 70.696,109.537 73.612,124.254 80.135 C 125.307 80.601,126.877 81.305,127.743 81.699 C 128.610 82.092,129.927 82.683,130.670 83.011 C 144.242 89.008,154.457 98.324,157.546 107.522 C 158.707 110.980,159.548 119.667,158.834 120.835 C 158.782 120.921,158.627 121.916,158.490 123.048 C 156.937 135.867,149.744 145.174,137.198 150.601 C 127.202 154.925,111.663 156.230,99.719 153.749 C 90.439 151.822,85.060 149.774,76.646 144.966 C 75.779 144.471,74.918 144.001,74.733 143.923 C 74.033 143.626,70.075 140.861,69.036 139.943 L 67.955 138.987 69.502 136.404 C 70.353 134.983,72.827 130.833,75.000 127.181 C 77.172 123.528,79.242 120.050,79.599 119.450 C 80.665 117.659,81.128 116.907,81.509 116.352 C 81.926 115.744,81.568 115.555,85.013 118.206 C 88.401 120.813,90.021 121.796,94.992 124.263 C 97.506 125.511,98.038 125.761,100.169 126.689 C 111.034 131.423,124.535 129.463,127.539 122.715 C 129.477 118.361,128.703 113.720,125.562 110.865 C 124.173 109.602,117.692 105.346,117.157 105.346 C 117.115 105.346,115.681 104.678,113.971 103.861 C 112.260 103.045,109.899 101.919,108.723 101.360 C 107.546 100.800,104.829 99.478,102.684 98.422 C 83.181 88.819,75.225 74.502,79.750 57.155 C 83.323 43.454,97.131 32.101,112.662 30.093 C 115.053 29.784,123.653 29.969,126.472 30.390 M228.700 30.474 C 232.238 31.036,238.812 32.739,240.518 33.535 C 240.765 33.650,241.626 34.012,242.431 34.340 C 243.967 34.965,246.647 36.275,248.171 37.147 C 248.666 37.430,249.274 37.774,249.522 37.911 C 257.523 42.333,267.513 52.703,272.307 61.564 C 275.073 66.676,277.766 73.972,278.332 77.884 C 278.412 78.441,278.570 79.201,278.681 79.572 C 279.188 81.256,279.797 88.211,279.797 92.311 C 279.797 104.606,276.844 115.968,271.173 125.492 C 270.531 126.571,268.667 129.369,268.231 129.910 C 267.969 130.235,267.552 130.785,267.304 131.132 C 263.217 136.862,257.260 142.229,249.516 147.160 C 240.383 152.973,223.212 156.375,211.705 154.649 C 210.962 154.538,209.443 154.333,208.329 154.195 C 206.249 153.936,206.078 153.901,202.814 153.069 C 200.502 152.479,196.246 151.140,195.160 150.660 C 183.623 145.562,175.956 139.216,168.563 128.644 C 166.739 126.037,164.048 120.929,162.631 117.389 C 157.820 105.364,156.836 89.484,160.072 76.083 C 160.509 74.275,161.861 69.972,162.299 68.993 C 162.410 68.745,162.771 67.884,163.100 67.079 C 168.638 53.552,181.515 40.501,195.048 34.698 C 196.286 34.168,197.501 33.643,197.749 33.532 C 199.768 32.628,206.267 30.973,209.567 30.524 C 210.990 30.330,212.459 30.129,212.831 30.077 C 214.669 29.822,226.447 30.116,228.700 30.474 M318.104 42.544 C 321.786 48.301,325.133 53.545,325.540 54.197 C 325.947 54.850,327.546 57.357,329.094 59.769 C 330.642 62.180,332.262 64.710,332.696 65.389 C 333.606 66.818,337.145 72.331,338.369 74.228 C 338.827 74.939,339.516 76.027,339.899 76.646 C 340.282 77.265,340.970 78.351,341.429 79.059 C 341.887 79.768,342.819 81.214,343.500 82.273 C 344.181 83.333,345.113 84.779,345.572 85.488 C 346.030 86.196,346.717 87.282,347.098 87.901 C 347.478 88.520,348.747 90.495,349.916 92.290 C 351.085 94.086,352.353 96.061,352.733 96.680 C 353.114 97.299,353.801 98.387,354.259 99.098 C 354.718 99.808,356.005 101.822,357.119 103.572 L 359.145 106.754 359.257 69.415 L 359.370 32.077 373.213 32.077 L 387.057 32.077 387.057 92.403 L 387.057 152.729 373.241 152.729 L 359.425 152.729 358.456 151.379 C 357.923 150.636,357.480 149.955,357.471 149.866 C 357.463 149.777,357.064 149.119,356.585 148.403 C 356.105 147.687,355.359 146.545,354.926 145.864 C 354.494 145.183,353.645 143.866,353.041 142.938 C 352.436 142.009,351.891 141.146,351.829 141.019 C 351.767 140.893,351.350 140.234,350.902 139.556 C 350.455 138.878,349.607 137.563,349.018 136.635 C 348.430 135.706,347.720 134.592,347.441 134.159 C 346.710 133.024,343.983 128.783,343.389 127.856 C 343.111 127.423,342.530 126.511,342.098 125.830 C 341.666 125.149,340.626 123.528,339.786 122.228 C 338.947 120.929,337.937 119.358,337.543 118.739 C 336.186 116.611,334.232 113.558,332.846 111.404 C 332.082 110.217,330.799 108.214,329.994 106.952 C 329.190 105.690,327.923 103.715,327.181 102.563 C 326.438 101.410,325.172 99.435,324.367 98.173 C 323.562 96.912,322.296 94.939,321.553 93.790 C 320.810 92.641,319.797 91.055,319.302 90.264 C 318.807 89.474,317.777 87.859,317.013 86.676 C 316.250 85.493,315.042 83.613,314.330 82.499 C 313.617 81.384,312.672 79.918,312.229 79.239 L 311.424 78.006 311.367 115.425 L 311.310 152.845 297.523 152.787 L 283.737 152.729 283.679 92.628 C 283.647 59.572,283.670 32.399,283.729 32.244 C 283.814 32.020,286.713 31.973,297.622 32.019 L 311.408 32.077 318.104 42.544 " stroke="none" fill="#fbfbfc" fill-rule="evenodd"></path><path id="path2" d="M213.168 46.519 C 194.065 49.490,179.018 62.992,175.204 80.585 C 175.029 81.390,174.797 82.454,174.687 82.949 C 172.506 92.764,175.294 106.619,181.255 115.593 C 202.203 147.133,249.645 140.681,261.568 104.671 C 262.203 102.754,262.520 101.455,263.163 98.143 C 263.515 96.329,263.660 88.722,263.392 86.100 C 261.648 69.023,249.641 54.093,233.202 48.560 C 230.192 47.547,228.196 47.075,224.873 46.589 C 223.640 46.409,214.238 46.353,213.168 46.519 " stroke="none" fill="#c3fb74" fill-rule="evenodd"></path><path id="path3" d="M111.992 30.189 C 110.172 30.454,109.860 30.646,111.536 30.470 C 112.279 30.392,114.001 30.256,115.363 30.168 L 117.839 30.007 115.588 30.000 C 114.350 29.996,112.732 30.081,111.992 30.189 M121.328 30.149 C 122.999 30.245,125.025 30.383,125.830 30.457 C 127.059 30.569,127.149 30.555,126.393 30.374 C 125.898 30.255,123.872 30.116,121.891 30.066 L 118.289 29.975 121.328 30.149 M211.820 30.192 C 209.688 30.438,209.197 30.645,211.142 30.476 C 211.947 30.406,213.973 30.272,215.644 30.177 L 218.683 30.006 216.095 30.001 C 214.671 29.999,212.747 30.084,211.820 30.192 M222.172 30.148 C 223.720 30.245,225.796 30.383,226.787 30.455 C 228.154 30.555,228.371 30.536,227.687 30.379 C 227.192 30.265,225.115 30.126,223.073 30.071 C 219.576 29.977,219.523 29.981,222.172 30.148 M108.308 30.880 C 107.771 31.000,107.383 31.150,107.446 31.213 C 107.574 31.341,110.073 30.863,110.073 30.710 C 110.073 30.569,109.419 30.632,108.308 30.880 M128.194 30.813 C 128.441 30.919,129.201 31.068,129.882 31.143 C 130.663 31.229,130.911 31.210,130.553 31.092 C 129.732 30.822,127.638 30.574,128.194 30.813 M207.116 30.857 C 206.573 30.963,206.066 31.114,205.990 31.191 C 205.831 31.353,207.822 31.080,208.662 30.825 L 209.229 30.652 208.666 30.657 C 208.357 30.660,207.659 30.750,207.116 30.857 M229.375 30.806 C 230.190 31.076,232.529 31.324,231.944 31.078 C 231.686 30.969,230.875 30.821,230.143 30.749 C 229.308 30.667,229.022 30.688,229.375 30.806 M203.939 31.609 C 202.447 32.021,202.130 32.193,203.151 32.036 C 204.132 31.885,205.837 31.318,205.290 31.325 C 205.104 31.327,204.496 31.455,203.939 31.609 M105.234 31.852 L 104.558 32.171 105.234 32.037 C 105.605 31.963,106.061 31.819,106.246 31.715 C 106.853 31.378,105.993 31.494,105.234 31.852 M133.371 31.867 C 133.990 32.039,134.598 32.146,134.721 32.104 C 135.021 32.002,133.270 31.511,132.696 31.535 C 132.448 31.546,132.752 31.695,133.371 31.867 M233.765 31.721 C 234.012 31.819,234.620 31.959,235.115 32.031 L 236.016 32.162 235.115 31.855 C 234.620 31.686,234.012 31.547,233.765 31.545 L 233.315 31.542 233.765 31.721 M37.968 32.112 C 37.885 32.196,37.841 50.860,37.872 73.588 L 37.927 114.913 38.041 73.607 L 38.154 32.302 51.716 32.244 L 65.279 32.186 65.310 77.939 C 65.329 105.210,65.419 122.691,65.534 121.216 C 65.639 119.854,65.701 99.240,65.671 75.408 L 65.616 32.077 51.868 32.019 C 44.307 31.987,38.052 32.029,37.968 32.112 M283.729 32.244 C 283.670 32.399,283.647 59.572,283.679 92.628 L 283.737 152.729 297.524 152.787 L 311.311 152.845 311.256 115.534 L 311.200 78.222 311.142 115.419 L 311.085 152.617 297.467 152.617 L 283.849 152.617 283.849 92.403 L 283.849 32.189 297.572 32.189 L 311.295 32.189 311.563 32.690 C 311.794 33.122,312.428 34.118,315.251 38.492 C 315.531 38.925,316.209 39.989,316.759 40.855 C 319.893 45.800,320.465 46.679,320.834 47.121 C 321.604 48.043,320.872 46.850,316.092 39.392 L 311.403 32.077 297.620 32.019 C 286.712 31.973,283.814 32.020,283.729 32.244 M359.363 32.244 C 359.304 32.399,359.231 49.227,359.200 69.639 L 359.145 106.750 358.030 104.979 C 357.416 104.005,356.295 102.245,355.537 101.069 C 354.780 99.893,353.813 98.383,353.389 97.713 C 352.964 97.043,351.992 95.524,351.228 94.337 C 348.576 90.212,347.011 87.763,344.048 83.098 C 342.807 81.145,341.657 79.558,342.078 80.381 C 342.238 80.693,348.206 90.052,356.407 102.852 C 357.789 105.009,359.046 106.816,359.200 106.866 C 359.424 106.940,359.493 99.325,359.538 69.630 L 359.595 32.302 373.213 32.302 L 386.832 32.302 386.832 92.403 L 386.832 152.504 373.238 152.562 C 362.589 152.608,359.567 152.559,359.282 152.337 C 358.960 152.086,358.954 152.098,359.230 152.450 C 359.521 152.821,360.400 152.842,373.299 152.787 L 387.057 152.729 387.057 92.403 L 387.057 32.077 373.263 32.019 C 362.347 31.973,359.447 32.020,359.363 32.244 M103.208 32.535 C 102.645 32.806,102.626 32.837,103.095 32.722 C 103.733 32.566,104.450 32.201,104.108 32.206 C 103.984 32.208,103.579 32.356,103.208 32.535 M135.847 32.497 C 136.342 32.661,137.051 32.857,137.423 32.933 L 138.098 33.071 137.416 32.762 C 137.040 32.592,136.331 32.396,135.840 32.326 L 134.947 32.198 135.847 32.497 M200.788 32.464 C 200.355 32.592,200.106 32.737,200.236 32.785 C 200.366 32.833,200.873 32.725,201.362 32.546 C 202.381 32.173,201.967 32.114,200.788 32.464 M236.804 32.512 C 237.237 32.687,237.743 32.835,237.929 32.840 C 238.521 32.858,237.697 32.484,236.804 32.329 L 236.016 32.193 236.804 32.512 M198.762 33.127 C 198.329 33.250,197.873 33.455,197.749 33.583 C 197.492 33.848,198.228 33.666,199.325 33.193 C 200.125 32.847,199.863 32.817,198.762 33.127 M238.379 32.951 C 238.379 33.105,240.471 33.774,240.587 33.658 C 240.645 33.600,240.451 33.463,240.155 33.354 C 239.375 33.066,238.379 32.840,238.379 32.951 M101.093 33.334 C 100.796 33.452,100.610 33.606,100.679 33.675 C 100.748 33.744,101.092 33.644,101.443 33.454 C 102.150 33.071,101.935 32.997,101.093 33.334 M138.886 33.412 C 139.319 33.587,139.826 33.735,140.011 33.741 C 140.603 33.759,139.779 33.384,138.886 33.230 L 138.098 33.093 138.886 33.412 M98.317 34.769 C 91.008 38.931,85.500 44.353,82.286 50.548 C 81.722 51.635,81.264 52.633,81.267 52.767 C 81.271 52.901,81.738 52.103,82.305 50.993 C 85.645 44.452,90.618 39.485,98.252 35.066 C 99.488 34.350,100.400 33.768,100.278 33.772 C 100.156 33.775,99.274 34.224,98.317 34.769 M141.024 34.084 C 141.396 34.249,141.953 34.451,142.262 34.533 L 142.825 34.682 142.262 34.367 C 141.953 34.194,141.396 33.992,141.024 33.918 L 140.349 33.783 141.024 34.084 M194.932 34.727 C 190.471 36.708,184.614 40.280,182.105 42.548 C 181.528 43.069,182.062 42.752,183.343 41.812 C 187.243 38.948,189.860 37.361,193.411 35.708 C 194.806 35.058,196.303 34.361,196.736 34.160 C 197.169 33.958,197.423 33.790,197.299 33.785 C 197.175 33.780,196.110 34.204,194.932 34.727 M241.306 34.066 C 241.615 34.241,242.122 34.451,242.431 34.533 L 242.994 34.682 242.431 34.364 C 242.122 34.189,241.615 33.979,241.306 33.897 L 240.743 33.748 241.306 34.066 M143.163 34.852 C 143.348 34.967,143.754 35.129,144.063 35.211 C 144.454 35.316,144.523 35.298,144.288 35.153 C 144.102 35.039,143.697 34.877,143.388 34.794 C 142.997 34.690,142.928 34.707,143.163 34.852 M243.143 34.777 C 243.204 34.838,244.310 35.403,245.600 36.032 C 246.890 36.661,247.845 37.075,247.721 36.952 C 247.462 36.696,243.445 34.665,243.196 34.665 C 243.106 34.665,243.081 34.715,243.143 34.777 M145.414 35.722 C 145.847 35.935,146.872 36.430,147.691 36.823 C 148.511 37.216,149.676 37.824,150.280 38.175 C 150.884 38.525,151.253 38.654,151.099 38.462 C 150.792 38.077,146.086 35.701,145.189 35.476 C 144.811 35.382,144.885 35.463,145.414 35.722 M248.059 37.215 C 248.059 37.256,249.147 37.967,250.478 38.796 C 251.809 39.625,253.405 40.665,254.024 41.108 C 254.673 41.572,254.864 41.659,254.474 41.314 C 253.735 40.658,249.901 38.045,249.667 38.037 C 249.587 38.034,249.268 37.834,248.959 37.591 C 248.445 37.190,248.059 37.028,248.059 37.215 M151.604 38.878 C 152.025 39.304,155.379 41.474,155.221 41.219 C 155.135 41.079,154.387 40.527,153.559 39.992 C 151.756 38.827,151.290 38.561,151.604 38.878 M153.020 45.751 C 150.703 50.336,150.243 51.314,150.555 50.985 C 150.982 50.534,155.403 41.643,155.199 41.643 C 155.142 41.643,154.161 43.492,153.020 45.751 M255.262 41.942 C 255.262 41.998,256.148 42.785,257.231 43.690 C 260.912 46.766,264.652 50.748,267.732 54.871 C 269.156 56.776,269.741 57.440,269.285 56.631 C 267.509 53.479,255.262 40.651,255.262 41.942 M177.594 46.522 C 172.840 51.143,169.590 55.156,166.815 59.829 C 165.260 62.447,163.348 66.180,163.489 66.321 C 163.541 66.374,164.004 65.542,164.518 64.472 C 167.842 57.543,173.674 50.035,180.043 44.485 C 180.580 44.017,180.969 43.584,180.907 43.522 C 180.845 43.460,179.354 44.810,177.594 46.522 M321.678 48.509 C 321.957 49.004,322.335 49.561,322.519 49.747 C 322.963 50.196,322.234 48.907,321.619 48.156 C 321.242 47.694,321.251 47.750,321.678 48.509 M323.254 50.985 C 323.533 51.480,323.911 52.037,324.095 52.223 C 324.539 52.672,323.810 51.384,323.195 50.632 C 322.817 50.170,322.826 50.226,323.254 50.985 M149.986 51.716 C 149.909 51.933,149.804 52.212,149.752 52.335 C 149.700 52.459,149.817 52.364,150.011 52.124 C 150.365 51.687,150.472 51.322,150.246 51.322 C 150.180 51.322,150.063 51.500,149.986 51.716 M147.058 57.502 C 145.725 60.159,144.511 62.501,144.360 62.707 C 144.113 63.045,143.858 62.942,141.813 61.677 C 140.563 60.905,139.493 60.319,139.437 60.376 C 139.326 60.486,143.931 63.253,144.225 63.252 C 144.321 63.252,145.464 61.153,146.764 58.588 C 149.389 53.407,149.740 52.673,149.586 52.673 C 149.528 52.673,148.390 54.846,147.058 57.502 M324.817 53.461 C 325.103 53.956,325.489 54.513,325.674 54.699 C 325.860 54.885,325.778 54.631,325.492 54.136 C 325.207 53.641,324.821 53.084,324.635 52.898 C 324.449 52.712,324.531 52.966,324.817 53.461 M80.835 53.824 C 80.697 54.221,80.623 54.586,80.671 54.634 C 80.719 54.683,80.872 54.396,81.010 53.999 C 81.149 53.601,81.223 53.236,81.175 53.188 C 81.127 53.140,80.974 53.426,80.835 53.824 M80.174 55.641 C 79.861 56.648,79.604 57.989,79.750 57.850 C 79.915 57.693,80.585 55.074,80.486 54.975 C 80.441 54.930,80.301 55.230,80.174 55.641 M115.970 55.115 C 115.685 55.196,117.388 55.262,119.754 55.262 C 122.121 55.262,123.823 55.196,123.537 55.115 C 123.251 55.035,121.548 54.969,119.752 54.969 C 117.957 54.969,116.255 55.035,115.970 55.115 M326.146 55.560 C 326.283 55.815,326.506 56.093,326.642 56.177 C 326.818 56.286,326.817 56.197,326.639 55.864 C 326.502 55.608,326.280 55.331,326.144 55.247 C 325.968 55.138,325.968 55.227,326.146 55.560 M126.168 55.838 C 127.158 56.070,128.120 56.252,128.306 56.242 C 128.831 56.212,125.564 55.411,124.930 55.413 C 124.620 55.414,125.177 55.605,126.168 55.838 M112.774 55.937 C 112.073 56.338,112.408 56.338,113.450 55.937 C 113.966 55.738,114.082 55.630,113.787 55.624 C 113.540 55.619,113.084 55.760,112.774 55.937 M111.424 56.459 C 109.228 57.454,106.235 60.553,106.249 61.817 C 106.250 61.926,106.565 61.458,106.949 60.777 C 107.789 59.289,109.039 58.099,110.861 57.056 C 112.048 56.375,112.376 56.028,111.424 56.459 M129.319 56.580 C 129.690 56.750,130.298 56.949,130.670 57.022 L 131.345 57.156 130.645 56.840 C 130.260 56.666,129.652 56.467,129.294 56.398 L 128.644 56.272 129.319 56.580 M327.322 57.344 C 328.564 59.376,329.801 61.227,329.919 61.227 C 329.989 61.227,329.887 60.984,329.692 60.687 C 329.498 60.389,328.817 59.326,328.181 58.323 C 327.544 57.320,326.974 56.500,326.915 56.500 C 326.855 56.500,327.038 56.880,327.322 57.344 M132.020 57.521 C 132.392 57.691,132.847 57.826,133.033 57.822 C 133.219 57.817,133.067 57.675,132.696 57.505 C 132.324 57.334,131.868 57.199,131.683 57.203 C 131.497 57.208,131.649 57.351,132.020 57.521 M269.799 57.738 C 270.021 58.109,270.552 58.999,270.979 59.714 C 271.406 60.430,271.802 60.968,271.860 60.910 C 271.977 60.794,270.469 58.321,269.812 57.552 C 269.403 57.073,269.403 57.077,269.799 57.738 M133.483 57.953 C 133.483 58.095,134.132 58.368,135.059 58.616 L 135.622 58.767 135.059 58.449 C 134.354 58.051,133.483 57.777,133.483 57.953 M79.388 58.388 C 79.209 58.854,78.924 61.589,79.068 61.452 C 79.214 61.314,79.699 58.240,79.592 58.133 C 79.550 58.091,79.458 58.205,79.388 58.388 M136.860 59.339 C 138.443 60.086,139.111 60.343,139.111 60.205 C 139.111 60.067,136.860 59.066,136.151 58.888 C 135.860 58.815,136.179 59.018,136.860 59.339 M272.257 61.902 C 272.449 62.273,272.656 62.577,272.718 62.577 C 272.780 62.577,272.674 62.273,272.482 61.902 C 272.290 61.531,272.082 61.227,272.020 61.227 C 271.958 61.227,272.065 61.531,272.257 61.902 M330.457 62.240 C 330.736 62.735,331.114 63.292,331.298 63.478 C 331.742 63.927,331.013 62.638,330.398 61.887 C 330.020 61.425,330.030 61.481,330.457 62.240 M105.822 62.825 C 104.376 66.973,107.114 71.726,112.549 74.506 C 113.411 74.947,113.053 74.663,111.108 73.365 C 106.603 70.358,104.925 67.009,105.990 63.149 C 106.289 62.066,106.168 61.833,105.822 62.825 M272.819 62.913 C 272.819 63.118,273.492 64.378,273.601 64.378 C 273.764 64.378,273.237 63.034,273.022 62.901 C 272.911 62.832,272.819 62.838,272.819 62.913 M78.648 66.629 C 78.648 68.301,78.683 68.984,78.726 68.149 C 78.770 67.313,78.770 65.945,78.726 65.110 C 78.683 64.274,78.648 64.958,78.648 66.629 M332.020 64.716 C 332.306 65.211,332.692 65.768,332.878 65.954 C 333.063 66.140,332.981 65.886,332.696 65.391 C 332.410 64.896,332.024 64.339,331.838 64.153 C 331.653 63.967,331.734 64.221,332.020 64.716 M273.728 64.727 C 273.732 64.845,273.888 65.194,274.075 65.504 L 274.414 66.066 274.267 65.504 C 274.113 64.917,273.713 64.341,273.728 64.727 M274.737 67.012 C 275.074 67.819,275.295 68.184,275.295 67.932 C 275.295 67.689,274.612 66.179,274.502 66.179 C 274.440 66.179,274.546 66.554,274.737 67.012 M333.273 66.629 C 333.861 67.669,341.545 79.609,341.748 79.797 C 342.119 80.142,341.443 79.016,339.111 75.408 C 337.920 73.566,336.068 70.661,334.949 68.880 C 333.902 67.214,332.664 65.551,333.273 66.629 M162.878 67.548 C 162.671 68.064,162.544 68.528,162.596 68.580 C 162.648 68.632,162.859 68.252,163.065 67.736 C 163.271 67.220,163.398 66.756,163.347 66.704 C 163.295 66.653,163.084 67.032,162.878 67.548 M275.424 68.655 C 275.507 68.965,275.669 69.370,275.784 69.555 C 275.929 69.790,275.946 69.721,275.842 69.330 C 275.759 69.021,275.597 68.616,275.483 68.430 C 275.338 68.195,275.320 68.264,275.424 68.655 M162.237 69.034 C 162.180 69.135,162.073 69.522,161.999 69.893 C 161.865 70.565,161.866 70.564,162.204 69.811 C 162.499 69.154,162.525 68.524,162.237 69.034 M78.837 70.456 C 78.837 70.889,78.883 71.066,78.940 70.850 C 78.996 70.633,78.996 70.279,78.940 70.062 C 78.883 69.845,78.837 70.023,78.837 70.456 M276.123 70.568 C 276.197 70.940,276.391 71.548,276.555 71.919 L 276.852 72.594 276.718 71.919 C 276.645 71.548,276.451 70.940,276.287 70.568 L 275.989 69.893 276.123 70.568 M161.299 71.822 C 161.105 72.475,160.990 73.052,161.043 73.105 C 161.096 73.158,161.298 72.668,161.492 72.015 C 161.686 71.363,161.801 70.786,161.748 70.733 C 161.695 70.680,161.493 71.170,161.299 71.822 M79.137 72.470 C 79.206 73.144,79.357 73.853,79.473 74.045 C 79.612 74.276,79.634 74.051,79.536 73.382 C 79.298 71.756,78.992 71.058,79.137 72.470 M277.003 73.382 C 277.237 74.597,277.583 75.255,277.417 74.170 C 277.342 73.675,277.184 73.118,277.066 72.932 C 276.920 72.703,276.900 72.847,277.003 73.382 M160.497 74.277 C 160.358 74.793,160.283 75.333,160.330 75.475 C 160.378 75.618,160.540 75.243,160.691 74.643 C 160.842 74.043,160.917 73.504,160.858 73.445 C 160.798 73.385,160.636 73.760,160.497 74.277 M79.806 75.239 C 79.893 75.642,80.110 76.224,80.289 76.533 C 80.468 76.843,80.562 76.925,80.500 76.716 C 80.437 76.507,80.274 75.925,80.139 75.422 C 79.846 74.335,79.581 74.189,79.806 75.239 M113.225 74.834 C 113.225 74.896,113.528 75.103,113.900 75.295 C 114.271 75.488,114.575 75.594,114.575 75.532 C 114.575 75.470,114.271 75.262,113.900 75.070 C 113.528 74.878,113.225 74.772,113.225 74.834 M114.800 75.750 C 114.800 75.806,115.408 76.159,116.151 76.533 C 117.680 77.306,118.012 77.264,116.545 76.484 C 115.351 75.850,114.800 75.618,114.800 75.750 M159.869 76.806 C 159.552 78.117,159.292 79.823,159.432 79.685 C 159.590 79.528,160.294 76.032,160.189 75.927 C 160.141 75.880,159.998 76.275,159.869 76.806 M277.807 76.196 C 277.811 76.443,277.950 77.153,278.115 77.772 L 278.415 78.897 278.287 77.772 C 278.217 77.153,278.079 76.443,277.980 76.196 L 277.800 75.746 277.807 76.196 M80.698 77.659 C 80.788 77.968,80.962 78.323,81.086 78.447 C 81.236 78.597,81.257 78.484,81.148 78.109 C 81.058 77.800,80.884 77.445,80.760 77.321 C 80.610 77.171,80.589 77.284,80.698 77.659 M117.727 77.319 C 117.727 77.474,120.705 78.808,120.812 78.700 C 120.889 78.624,118.045 77.209,117.814 77.209 C 117.766 77.209,117.727 77.258,117.727 77.319 M312.044 78.973 C 312.446 79.564,313.433 81.083,314.237 82.349 C 315.042 83.614,316.308 85.590,317.051 86.739 C 317.794 87.888,318.807 89.474,319.302 90.264 C 319.797 91.055,320.810 92.641,321.553 93.790 C 322.296 94.939,323.562 96.912,324.367 98.173 C 325.172 99.435,326.438 101.410,327.181 102.563 C 327.923 103.715,329.190 105.690,329.994 106.952 C 330.799 108.214,332.082 110.217,332.846 111.404 C 334.649 114.207,336.576 117.216,337.831 119.190 C 339.763 122.226,340.374 123.129,340.499 123.129 C 340.569 123.129,340.450 122.860,340.235 122.532 C 340.020 122.204,335.329 114.886,329.812 106.269 C 324.294 97.652,318.281 88.272,316.450 85.425 C 314.619 82.577,312.840 79.768,312.498 79.181 C 312.156 78.595,311.749 78.066,311.595 78.007 C 311.441 77.948,311.643 78.383,312.044 78.973 M81.408 79.122 C 81.623 79.774,83.301 82.594,83.574 82.763 C 83.831 82.921,83.804 82.870,82.680 81.103 C 82.271 80.459,81.936 79.845,81.936 79.739 C 81.936 79.633,81.784 79.349,81.598 79.109 C 81.265 78.679,81.262 78.679,81.408 79.122 M121.172 78.929 C 121.442 79.198,127.708 81.934,127.814 81.828 C 127.871 81.770,127.676 81.629,127.381 81.514 C 127.085 81.399,125.585 80.738,124.047 80.045 C 121.284 78.799,120.890 78.646,121.172 78.929 M278.587 80.248 C 278.818 82.181,279.131 83.171,278.992 81.527 C 278.926 80.744,278.777 79.883,278.662 79.613 C 278.514 79.267,278.492 79.453,278.587 80.248 M158.955 81.504 C 158.812 82.319,158.706 83.332,158.720 83.755 C 158.734 84.178,158.887 83.616,159.060 82.506 C 159.427 80.154,159.339 79.318,158.955 81.504 M128.834 82.412 C 129.310 82.663,129.751 82.817,129.815 82.753 C 129.925 82.643,128.407 81.925,128.110 81.946 C 128.032 81.951,128.358 82.161,128.834 82.412 M130.167 82.972 C 130.384 83.188,135.059 85.285,135.059 85.166 C 135.059 85.051,130.413 82.836,130.173 82.836 C 130.095 82.836,130.093 82.897,130.167 82.972 M83.874 83.286 C 85.081 85.783,91.224 91.696,95.442 94.422 C 97.877 95.996,100.394 97.383,100.394 97.151 C 100.394 97.109,99.282 96.438,97.923 95.660 C 92.458 92.531,89.056 89.543,84.343 83.728 C 83.995 83.300,83.784 83.101,83.874 83.286 M279.174 83.962 C 279.174 84.395,279.221 84.572,279.277 84.356 C 279.334 84.139,279.334 83.784,279.277 83.568 C 279.221 83.351,279.174 83.528,279.174 83.962 M158.526 85.650 C 158.529 86.145,158.575 86.321,158.629 86.041 C 158.682 85.761,158.680 85.356,158.624 85.141 C 158.568 84.926,158.524 85.155,158.526 85.650 M135.380 85.510 C 135.447 85.619,135.732 85.766,136.012 85.837 C 136.504 85.961,136.507 85.954,136.085 85.639 C 135.601 85.277,135.190 85.202,135.380 85.510 M279.460 92.403 C 279.460 96.365,279.526 99.049,279.606 98.368 C 279.798 96.745,279.800 87.770,279.609 86.325 C 279.527 85.706,279.460 88.441,279.460 92.403 M136.747 86.146 C 136.871 86.273,137.479 86.661,138.098 87.008 C 138.717 87.354,139.122 87.533,138.998 87.405 C 138.875 87.277,138.267 86.890,137.648 86.543 C 137.029 86.197,136.624 86.018,136.747 86.146 M158.183 90.208 C 158.112 91.787,158.131 94.142,158.226 95.442 C 158.375 97.486,158.403 97.099,158.434 92.572 C 158.473 86.754,158.378 85.858,158.183 90.208 M139.674 87.895 C 139.921 88.092,141.001 88.866,142.073 89.613 C 144.339 91.193,147.004 93.371,148.853 95.151 C 149.568 95.841,150.203 96.355,150.264 96.294 C 150.540 96.018,144.487 90.942,141.474 88.924 C 139.788 87.794,138.938 87.308,139.674 87.895 M150.591 96.726 C 150.591 96.840,150.903 97.231,151.284 97.594 C 151.666 97.958,152.485 98.939,153.106 99.775 C 154.109 101.124,154.418 101.465,154.418 101.222 C 154.418 101.183,154.038 100.643,153.573 100.022 C 152.452 98.522,150.591 96.466,150.591 96.726 M100.943 97.591 C 101.427 97.953,101.839 98.028,101.649 97.720 C 101.581 97.611,101.297 97.464,101.016 97.393 C 100.524 97.269,100.522 97.276,100.943 97.591 M102.744 98.488 C 102.985 98.670,103.288 98.815,103.420 98.811 C 103.551 98.807,103.461 98.655,103.221 98.473 C 102.981 98.292,102.677 98.146,102.546 98.150 C 102.415 98.154,102.504 98.306,102.744 98.488 M158.526 99.381 C 158.529 99.876,158.575 100.052,158.629 99.772 C 158.682 99.492,158.680 99.087,158.624 98.872 C 158.568 98.657,158.524 98.886,158.526 99.381 M103.770 98.929 C 103.770 99.050,106.674 100.401,106.897 100.383 C 107.071 100.369,104.168 98.844,103.939 98.829 C 103.846 98.823,103.770 98.868,103.770 98.929 M279.179 100.732 C 279.181 101.227,279.227 101.403,279.281 101.123 C 279.335 100.843,279.333 100.438,279.277 100.222 C 279.220 100.007,279.176 100.236,279.179 100.732 M107.147 100.512 C 107.147 100.622,108.407 101.294,108.612 101.294 C 108.687 101.294,108.693 101.203,108.624 101.091 C 108.491 100.877,107.147 100.350,107.147 100.512 M158.820 102.195 C 158.879 103.123,159.024 104.187,159.141 104.558 C 159.387 105.335,159.221 103.272,158.898 101.519 C 158.752 100.726,158.735 100.873,158.820 102.195 M108.948 101.405 C 108.948 101.560,111.926 102.893,112.033 102.786 C 112.110 102.709,109.266 101.294,109.035 101.294 C 108.987 101.294,108.948 101.344,108.948 101.405 M154.666 101.978 C 154.864 102.283,155.201 102.871,155.414 103.285 C 155.627 103.699,155.853 103.985,155.917 103.922 C 156.062 103.777,154.919 101.803,154.565 101.584 C 154.422 101.496,154.467 101.674,154.666 101.978 M278.919 102.195 C 278.902 102.380,278.787 103.231,278.664 104.085 C 278.540 104.940,278.481 105.681,278.533 105.732 C 278.688 105.887,279.167 102.697,279.054 102.262 C 278.981 101.979,278.940 101.959,278.919 102.195 M112.324 102.969 C 112.324 103.091,117.022 105.352,117.241 105.335 C 117.415 105.322,114.122 103.620,113.056 103.172 C 112.653 103.002,112.324 102.911,112.324 102.969 M156.349 105.044 C 156.558 105.520,156.940 106.499,157.199 107.221 C 157.458 107.943,157.703 108.434,157.743 108.313 C 157.842 108.016,156.473 104.491,156.192 104.317 C 156.070 104.241,156.141 104.569,156.349 105.044 M117.501 105.438 C 117.501 105.493,118.388 106.054,119.471 106.685 C 120.554 107.317,121.972 108.184,122.622 108.613 C 123.272 109.043,123.804 109.342,123.804 109.279 C 123.804 109.107,119.796 106.505,118.571 105.882 C 117.983 105.583,117.501 105.383,117.501 105.438 M159.477 106.472 C 159.691 107.840,160.084 109.434,160.183 109.335 C 160.296 109.222,159.617 105.742,159.452 105.586 C 159.379 105.516,159.390 105.914,159.477 106.472 M278.010 107.394 C 277.862 108.149,277.788 108.814,277.847 108.873 C 277.952 108.978,278.066 108.527,278.352 106.866 C 278.593 105.466,278.301 105.918,278.010 107.394 M157.805 108.835 C 157.804 108.959,157.950 109.567,158.131 110.186 L 158.458 111.311 158.326 110.298 C 158.207 109.388,157.811 108.277,157.805 108.835 M160.399 110.411 C 160.475 110.906,160.633 111.463,160.751 111.649 C 161.009 112.056,160.769 110.652,160.462 109.961 C 160.325 109.653,160.305 109.796,160.399 110.411 M124.930 110.210 C 124.930 110.336,125.242 110.670,125.624 110.952 C 126.005 111.234,126.714 112.089,127.197 112.851 C 127.681 113.614,128.078 114.128,128.079 113.995 C 128.082 113.589,126.813 111.815,125.844 110.872 C 125.341 110.382,124.930 110.085,124.930 110.210 M277.137 111.014 C 277.003 111.541,276.933 112.011,276.980 112.058 C 277.028 112.106,277.181 111.719,277.321 111.199 C 277.461 110.678,277.532 110.209,277.478 110.155 C 277.424 110.101,277.271 110.488,277.137 111.014 M158.582 116.963 C 158.582 119.897,158.654 121.902,158.741 121.419 C 158.956 120.237,158.963 113.301,158.751 112.371 C 158.658 111.963,158.582 114.030,158.582 116.963 M160.968 112.227 C 160.934 112.593,161.637 114.859,161.750 114.746 C 161.805 114.691,161.656 114.048,161.420 113.317 C 161.184 112.585,160.980 112.095,160.968 112.227 M276.441 113.248 C 276.288 113.756,276.114 114.339,276.053 114.542 C 275.992 114.746,276.088 114.660,276.267 114.350 C 276.596 113.782,276.988 112.324,276.812 112.324 C 276.760 112.324,276.593 112.740,276.441 113.248 M128.191 114.800 C 128.256 115.110,128.407 115.768,128.529 116.263 L 128.749 117.164 128.642 116.078 C 128.584 115.481,128.432 114.823,128.305 114.615 C 128.119 114.310,128.097 114.345,128.191 114.800 M161.978 115.589 C 162.071 115.960,162.319 116.669,162.529 117.164 C 162.739 117.659,162.977 118.256,163.059 118.490 C 163.140 118.725,163.258 118.866,163.320 118.803 C 163.424 118.699,162.152 115.280,161.914 115.026 C 161.856 114.964,161.885 115.217,161.978 115.589 M275.237 116.548 C 274.365 118.785,274.299 118.996,274.546 118.739 C 274.850 118.424,276.067 115.272,275.935 115.140 C 275.876 115.080,275.561 115.714,275.237 116.548 M37.520 116.263 C 37.207 117.791,37.098 118.627,37.213 118.627 C 37.390 118.627,37.868 116.190,37.755 115.864 C 37.702 115.712,37.597 115.892,37.520 116.263 M81.161 116.847 C 80.826 117.353,80.600 117.816,80.658 117.875 C 80.717 117.933,80.996 117.569,81.279 117.066 C 81.923 115.921,81.620 115.825,84.524 118.097 C 85.886 119.163,87.355 120.258,87.788 120.531 C 89.323 121.498,90.715 122.270,90.715 122.154 C 90.715 122.089,90.146 121.711,89.450 121.313 C 88.163 120.577,84.227 117.731,82.885 116.567 C 81.935 115.743,81.886 115.751,81.161 116.847 M80.197 118.458 C 80.032 118.671,78.058 122.019,77.277 123.410 C 77.225 123.503,77.226 123.579,77.280 123.579 C 77.356 123.579,80.095 119.158,80.523 118.346 C 80.667 118.072,80.434 118.152,80.197 118.458 M128.288 120.147 C 128.092 121.106,127.753 122.296,127.535 122.791 C 127.317 123.286,127.242 123.590,127.369 123.467 C 127.788 123.056,128.526 120.887,128.673 119.635 C 128.880 117.877,128.703 118.111,128.288 120.147 M36.850 119.237 C 36.783 119.459,36.620 119.988,36.488 120.413 C 36.356 120.837,36.336 121.091,36.443 120.975 C 36.706 120.690,37.212 119.073,37.080 118.941 C 37.021 118.882,36.918 119.015,36.850 119.237 M163.550 119.527 C 163.631 119.837,163.787 120.186,163.897 120.304 C 164.218 120.648,164.120 120.154,163.742 119.527 L 163.403 118.965 163.550 119.527 M273.528 120.574 C 273.126 121.389,272.841 122.100,272.895 122.154 C 272.948 122.207,273.309 121.572,273.697 120.743 C 274.614 118.783,274.479 118.647,273.528 120.574 M8.235 120.798 C 8.157 121.001,8.144 121.218,8.205 121.280 C 8.267 121.342,8.384 121.222,8.464 121.013 C 8.600 120.657,8.636 120.657,9.032 121.016 C 9.264 121.226,9.454 121.317,9.454 121.219 C 9.454 121.028,8.763 120.447,8.522 120.435 C 8.442 120.431,8.313 120.594,8.235 120.798 M164.353 121.321 C 164.484 121.697,164.679 122.058,164.785 122.124 C 164.892 122.190,164.872 121.936,164.741 121.560 C 164.610 121.185,164.415 120.823,164.309 120.757 C 164.202 120.691,164.222 120.945,164.353 121.321 M35.388 122.517 C 35.012 123.183,34.114 124.316,33.391 125.037 C 32.461 125.963,32.320 126.167,32.907 125.734 C 34.149 124.819,36.493 121.730,36.181 121.419 C 36.120 121.358,35.763 121.852,35.388 122.517 M7.567 122.592 C 7.368 123.177,7.243 123.694,7.291 123.742 C 7.339 123.790,7.541 123.350,7.740 122.765 C 7.939 122.180,8.063 121.663,8.016 121.615 C 7.968 121.568,7.766 122.007,7.567 122.592 M9.803 121.733 C 12.873 124.309,16.745 126.956,17.443 126.956 C 17.551 126.956,16.748 126.424,15.657 125.774 C 14.566 125.124,12.829 123.908,11.796 123.073 C 10.762 122.237,9.843 121.553,9.753 121.553 C 9.663 121.553,9.685 121.634,9.803 121.733 M90.940 122.344 C 90.940 122.445,92.516 123.321,93.247 123.626 C 94.000 123.939,93.635 123.585,92.684 123.080 C 91.494 122.447,90.940 122.213,90.940 122.344 M164.997 122.570 C 164.997 122.752,166.380 125.155,166.485 125.155 C 166.537 125.155,166.273 124.547,165.898 123.804 C 165.295 122.610,164.997 122.202,164.997 122.570 M272.257 123.129 C 272.065 123.500,271.958 123.804,272.020 123.804 C 272.082 123.804,272.290 123.500,272.482 123.129 C 272.674 122.757,272.780 122.454,272.718 122.454 C 272.656 122.454,272.449 122.757,272.257 123.129 M158.154 123.860 C 157.794 126.199,157.778 126.411,157.994 125.923 C 158.234 125.383,158.576 122.904,158.411 122.904 C 158.351 122.904,158.235 123.334,158.154 123.860 M341.037 124.142 C 341.316 124.637,341.694 125.194,341.877 125.380 C 342.322 125.829,341.593 124.541,340.978 123.789 C 340.600 123.328,340.609 123.383,341.037 124.142 M93.866 123.924 C 93.866 123.984,94.752 124.449,95.836 124.957 C 98.355 126.139,98.882 126.341,98.705 126.054 C 98.629 125.931,98.474 125.830,98.361 125.830 C 98.247 125.830,97.418 125.467,96.517 125.024 C 94.588 124.074,93.866 123.775,93.866 123.924 M6.759 124.575 C 6.407 125.503,6.519 125.821,6.895 124.960 C 7.077 124.543,7.173 124.149,7.108 124.084 C 7.044 124.020,6.887 124.241,6.759 124.575 M65.106 124.705 C 65.106 125.138,65.152 125.315,65.209 125.098 C 65.265 124.882,65.265 124.527,65.209 124.311 C 65.152 124.094,65.106 124.271,65.106 124.705 M270.811 125.601 C 270.293 126.474,269.413 127.854,268.855 128.669 C 268.297 129.483,267.954 130.080,268.091 129.995 C 268.337 129.843,271.019 125.901,271.019 125.692 C 271.019 125.634,271.239 125.288,271.509 124.923 C 271.779 124.558,271.944 124.205,271.877 124.137 C 271.809 124.070,271.330 124.728,270.811 125.601 M125.920 125.021 C 125.718 125.547,123.334 127.080,121.778 127.684 C 119.615 128.525,119.576 128.545,120.375 128.426 C 122.039 128.177,127.527 124.757,126.329 124.715 C 126.171 124.709,125.986 124.847,125.920 125.021 M74.836 127.462 C 72.967 130.560,73.035 130.434,73.329 130.253 C 73.461 130.171,74.022 129.319,74.575 128.361 C 75.129 127.402,75.805 126.238,76.080 125.774 C 76.354 125.310,76.530 124.930,76.471 124.930 C 76.412 124.930,75.677 126.069,74.836 127.462 M166.800 125.830 C 167.551 127.301,171.472 132.835,171.988 133.154 C 172.136 133.245,171.649 132.521,170.907 131.544 C 170.164 130.568,168.927 128.807,168.158 127.631 C 166.681 125.375,166.326 124.904,166.800 125.830 M6.102 126.337 C 5.699 127.415,5.583 128.006,5.862 127.558 C 6.160 127.082,6.545 125.830,6.394 125.830 C 6.338 125.830,6.206 126.058,6.102 126.337 M64.646 127.521 C 64.496 128.487,64.415 129.318,64.465 129.369 C 64.607 129.510,65.127 126.387,65.016 126.056 C 64.963 125.896,64.796 126.555,64.646 127.521 M342.612 126.618 C 342.891 127.113,343.270 127.670,343.453 127.856 C 343.897 128.305,343.168 127.017,342.554 126.265 C 342.176 125.804,342.185 125.859,342.612 126.618 M99.494 126.601 C 100.121 126.978,100.614 127.077,100.270 126.756 C 100.153 126.646,99.803 126.490,99.494 126.409 L 98.931 126.261 99.494 126.601 M157.266 127.994 C 157.048 128.813,156.919 129.532,156.979 129.592 C 157.090 129.703,157.438 128.569,157.706 127.225 C 157.959 125.960,157.677 126.454,157.266 127.994 M17.892 127.176 C 18.046 127.424,19.576 127.939,19.723 127.791 C 19.784 127.731,19.369 127.523,18.802 127.330 C 18.235 127.137,17.825 127.067,17.892 127.176 M29.826 127.393 C 29.330 127.628,29.004 127.828,29.101 127.838 C 29.366 127.865,30.838 127.222,30.838 127.080 C 30.838 126.912,30.849 126.909,29.826 127.393 M101.069 127.254 C 101.379 127.427,101.936 127.629,102.307 127.703 L 102.983 127.837 102.307 127.537 C 101.936 127.372,101.379 127.169,101.069 127.088 L 100.506 126.939 101.069 127.254 M20.346 128.106 C 20.579 128.247,21.440 128.396,22.259 128.437 L 23.748 128.512 22.397 128.302 C 21.654 128.187,20.793 128.038,20.484 127.971 C 19.982 127.863,19.967 127.878,20.346 128.106 M28.023 127.987 C 27.898 128.040,27.037 128.178,26.109 128.296 L 24.423 128.509 26.260 128.430 C 27.270 128.387,28.283 128.243,28.511 128.111 C 28.929 127.867,28.541 127.769,28.023 127.987 M103.320 128.062 C 103.506 128.168,104.012 128.316,104.446 128.391 L 105.234 128.527 104.446 128.209 C 103.531 127.839,102.750 127.737,103.320 128.062 M5.202 128.781 C 5.064 129.179,4.990 129.544,5.038 129.592 C 5.086 129.640,5.239 129.354,5.377 128.956 C 5.516 128.559,5.590 128.194,5.542 128.146 C 5.494 128.097,5.341 128.384,5.202 128.781 M343.863 128.588 C 344.479 129.641,346.013 131.908,346.110 131.908 C 346.246 131.908,346.214 131.853,344.908 129.826 C 344.369 128.990,343.877 128.306,343.814 128.306 C 343.751 128.306,343.773 128.433,343.863 128.588 M106.788 128.979 C 107.147 129.093,108.160 129.238,109.038 129.302 C 110.245 129.389,110.416 129.370,109.736 129.226 C 108.301 128.923,106.002 128.730,106.788 128.979 M116.038 129.010 C 113.720 129.299,113.529 129.430,115.622 129.297 C 117.418 129.182,119.488 128.783,118.177 128.804 C 117.867 128.809,116.905 128.902,116.038 129.010 M63.945 130.800 C 63.785 131.424,63.705 131.984,63.766 132.046 C 63.827 132.107,64.001 131.640,64.153 131.007 C 64.305 130.375,64.386 129.814,64.333 129.761 C 64.279 129.708,64.105 130.175,63.945 130.800 M4.404 130.810 C 4.200 131.321,4.085 131.791,4.149 131.854 C 4.260 131.965,4.487 131.471,4.825 130.388 C 5.091 129.533,4.798 129.827,4.404 130.810 M156.357 130.921 C 155.886 132.303,156.053 132.469,156.565 131.129 C 156.781 130.561,156.905 130.043,156.839 129.977 C 156.773 129.911,156.556 130.336,156.357 130.921 M72.029 132.182 C 70.877 134.143,70.786 134.314,70.996 134.126 C 71.300 133.855,73.170 130.720,73.081 130.631 C 73.032 130.582,72.559 131.280,72.029 132.182 M265.379 133.252 C 264.457 134.363,262.510 136.454,261.052 137.898 C 259.594 139.343,258.437 140.561,258.481 140.605 C 258.627 140.751,263.635 135.654,265.144 133.825 C 267.053 131.509,267.267 131.232,267.151 131.232 C 267.099 131.232,266.301 132.141,265.379 133.252 M2.884 134.780 C 2.321 136.233,1.784 137.676,1.690 137.985 C 1.407 138.920,1.790 138.344,2.232 137.170 C 3.784 133.053,4.055 132.286,3.985 132.216 C 3.942 132.173,3.446 133.327,2.884 134.780 M346.664 132.921 C 346.943 133.416,347.321 133.973,347.505 134.159 C 347.949 134.608,347.220 133.319,346.605 132.568 C 346.227 132.106,346.237 132.162,346.664 132.921 M155.571 132.949 C 155.423 133.275,155.353 133.593,155.416 133.656 C 155.479 133.719,155.637 133.490,155.768 133.146 C 155.899 132.802,155.969 132.484,155.924 132.438 C 155.878 132.393,155.720 132.623,155.571 132.949 M63.130 133.596 C 63.032 133.967,62.711 134.816,62.417 135.481 C 62.123 136.146,61.923 136.731,61.972 136.780 C 62.123 136.931,63.506 133.455,63.404 133.180 C 63.351 133.037,63.228 133.225,63.130 133.596 M173.136 134.663 C 177.310 139.698,184.722 145.586,190.597 148.536 C 193.178 149.831,193.241 149.692,190.687 148.337 C 184.147 144.865,176.895 139.090,173.326 134.511 C 172.893 133.955,172.453 133.497,172.348 133.492 C 172.244 133.487,172.598 134.014,173.136 134.663 M154.429 135.261 C 154.048 136.017,153.778 136.635,153.830 136.635 C 154.005 136.635,155.349 134.114,155.235 134.001 C 155.173 133.939,154.810 134.506,154.429 135.261 M69.330 136.690 L 67.966 138.997 69.042 139.948 C 70.393 141.142,74.477 143.944,74.635 143.786 C 74.700 143.721,74.267 143.385,73.674 143.039 C 72.632 142.434,70.097 140.587,68.828 139.510 L 68.214 138.988 68.955 137.755 C 70.497 135.193,70.945 134.384,70.821 134.384 C 70.751 134.384,70.080 135.422,69.330 136.690 M348.240 135.397 C 348.519 135.892,348.897 136.449,349.081 136.635 C 349.525 137.084,348.796 135.795,348.181 135.044 C 347.803 134.582,347.812 134.638,348.240 135.397 M153.267 137.357 C 151.687 140.309,147.339 144.663,143.669 146.969 C 142.195 147.895,142.116 148.123,143.557 147.292 C 145.186 146.353,148.069 144.043,149.597 142.451 C 151.348 140.629,154.076 136.860,153.646 136.860 C 153.584 136.860,153.413 137.083,153.267 137.357 M349.491 137.366 C 350.107 138.420,351.640 140.687,351.737 140.687 C 351.874 140.687,351.842 140.631,350.535 138.604 C 349.997 137.769,349.504 137.085,349.441 137.085 C 349.378 137.085,349.400 137.212,349.491 137.366 M60.664 139.111 C 60.472 139.482,60.365 139.786,60.427 139.786 C 60.489 139.786,60.697 139.482,60.889 139.111 C 61.081 138.739,61.188 138.436,61.126 138.436 C 61.064 138.436,60.856 138.739,60.664 139.111 M1.151 139.361 C 1.012 139.759,0.938 140.124,0.986 140.172 C 1.034 140.220,1.187 139.934,1.326 139.536 C 1.464 139.138,1.538 138.773,1.490 138.725 C 1.442 138.677,1.289 138.963,1.151 139.361 M59.013 141.643 C 58.373 142.541,56.963 144.179,55.880 145.283 C 54.642 146.545,54.311 146.963,54.988 146.410 C 56.585 145.106,59.003 142.259,60.184 140.293 C 60.678 139.470,60.031 140.216,59.013 141.643 M0.356 141.381 C 0.150 141.896,0.023 142.361,0.075 142.412 C 0.127 142.464,0.338 142.084,0.544 141.568 C 0.750 141.052,0.877 140.588,0.825 140.537 C 0.774 140.485,0.563 140.865,0.356 141.381 M257.863 140.891 C 257.783 141.020,256.482 142.051,254.970 143.183 C 252.249 145.220,251.431 145.890,252.110 145.522 C 252.394 145.369,256.792 142.092,257.917 141.195 C 258.110 141.042,258.209 140.858,258.138 140.786 C 258.066 140.715,257.943 140.762,257.863 140.891 M351.834 140.957 C 351.827 141.160,353.177 143.163,353.321 143.163 C 353.456 143.163,352.825 142.082,352.260 141.347 C 352.028 141.046,351.837 140.870,351.834 140.957 M353.867 144.176 C 354.146 144.671,354.525 145.228,354.708 145.414 C 355.152 145.863,354.423 144.574,353.809 143.823 C 353.431 143.361,353.440 143.417,353.867 144.176 M0.900 144.499 C 3.012 146.434,7.544 149.650,7.800 149.394 C 7.854 149.340,7.413 149.013,6.819 148.668 C 5.563 147.938,1.693 145.111,1.481 144.768 C 1.402 144.639,1.011 144.317,0.612 144.052 C 0.078 143.697,0.154 143.815,0.900 144.499 M75.134 144.116 C 75.396 144.432,76.308 144.816,76.308 144.610 C 76.308 144.563,75.979 144.355,75.577 144.147 C 74.958 143.827,74.890 143.822,75.134 144.116 M76.816 145.041 C 77.343 145.456,85.325 149.529,85.419 149.430 C 85.459 149.388,83.451 148.313,80.957 147.041 C 78.462 145.770,76.599 144.870,76.816 145.041 M250.582 146.239 C 250.050 146.559,249.661 146.866,249.717 146.922 C 249.816 147.021,251.660 145.882,251.660 145.721 C 251.660 145.594,251.614 145.616,250.582 146.239 M355.431 146.652 C 355.716 147.147,356.102 147.704,356.288 147.890 C 356.473 148.075,356.392 147.822,356.106 147.327 C 355.820 146.832,355.434 146.275,355.249 146.089 C 355.063 145.903,355.145 146.156,355.431 146.652 M248.678 147.343 C 248.337 147.528,248.059 147.726,248.059 147.784 C 248.059 148.020,248.490 147.864,248.990 147.447 C 249.624 146.919,249.521 146.885,248.678 147.343 M52.110 148.397 C 51.244 149.005,49.851 149.850,49.015 150.274 C 47.516 151.037,46.912 151.513,48.115 150.985 C 49.320 150.456,52.953 148.234,53.780 147.520 C 54.414 146.973,53.325 147.545,52.110 148.397 M141.531 148.244 C 140.689 148.700,140.740 148.890,141.587 148.452 C 141.958 148.260,142.262 148.055,142.262 147.996 C 142.262 147.852,142.238 147.860,141.531 148.244 M246.258 148.678 C 245.453 149.099,244.873 149.448,244.970 149.454 C 245.209 149.469,247.833 148.136,247.833 147.999 C 247.833 147.848,247.886 147.825,246.258 148.678 M356.760 148.750 C 356.897 149.006,357.119 149.284,357.255 149.367 C 357.431 149.477,357.431 149.388,357.253 149.055 C 357.116 148.799,356.893 148.522,356.757 148.438 C 356.581 148.329,356.582 148.417,356.760 148.750 M139.885 149.121 C 139.645 149.302,139.556 149.454,139.687 149.458 C 139.818 149.462,140.122 149.317,140.362 149.135 C 140.602 148.953,140.692 148.801,140.561 148.797 C 140.430 148.793,140.126 148.939,139.885 149.121 M8.415 149.795 C 9.024 150.264,12.398 151.999,12.502 151.895 C 12.550 151.847,11.554 151.281,10.290 150.638 C 9.026 149.994,8.182 149.615,8.415 149.795 M85.880 149.654 C 86.001 149.764,86.452 149.972,86.883 150.116 C 87.313 150.260,87.567 150.288,87.446 150.178 C 87.325 150.067,86.873 149.859,86.443 149.715 C 86.012 149.571,85.759 149.543,85.880 149.654 M138.323 149.903 C 137.828 150.138,137.502 150.338,137.599 150.348 C 137.863 150.375,139.336 149.732,139.336 149.589 C 139.336 149.422,139.347 149.419,138.323 149.903 M192.909 149.586 C 192.909 149.783,194.518 150.408,194.659 150.266 C 194.729 150.197,194.730 150.141,194.663 150.141 C 194.595 150.141,194.173 149.987,193.725 149.800 C 193.276 149.613,192.909 149.517,192.909 149.586 M242.656 150.287 C 241.604 150.724,240.236 151.238,239.617 151.430 C 238.998 151.622,238.603 151.819,238.738 151.867 C 239.123 152.005,244.682 149.871,244.682 149.586 C 244.682 149.432,244.868 149.368,242.656 150.287 M357.461 149.735 C 357.455 149.939,358.804 151.941,358.948 151.941 C 359.084 151.941,358.453 150.861,357.888 150.126 C 357.656 149.824,357.464 149.649,357.461 149.735 M88.351 150.712 C 88.723 150.882,89.178 151.017,89.364 151.013 C 89.550 151.008,89.398 150.865,89.026 150.695 C 88.655 150.525,88.199 150.390,88.014 150.394 C 87.828 150.399,87.980 150.541,88.351 150.712 M136.433 150.610 C 136.137 150.729,135.945 150.877,136.008 150.940 C 136.140 151.071,137.310 150.661,137.310 150.484 C 137.310 150.321,137.067 150.356,136.433 150.610 M195.059 150.566 C 195.360 150.847,198.784 151.994,198.920 151.859 C 198.981 151.797,198.540 151.598,197.940 151.415 C 197.340 151.232,196.472 150.921,196.012 150.724 C 195.075 150.323,194.740 150.267,195.059 150.566 M89.814 151.111 C 89.814 151.292,92.077 152.004,92.215 151.867 C 92.282 151.800,91.914 151.632,91.399 151.494 C 90.883 151.355,90.316 151.185,90.138 151.117 C 89.960 151.049,89.814 151.046,89.814 151.111 M134.384 151.434 C 133.827 151.631,133.491 151.832,133.639 151.881 C 133.786 151.930,134.343 151.770,134.877 151.525 C 136.044 150.988,135.783 150.940,134.384 151.434 M46.258 151.612 C 45.695 151.883,45.676 151.914,46.145 151.799 C 46.783 151.644,47.500 151.278,47.158 151.283 C 47.034 151.285,46.629 151.433,46.258 151.612 M13.281 152.262 C 13.590 152.448,13.995 152.601,14.181 152.602 C 14.633 152.603,14.098 152.288,13.281 152.072 L 12.718 151.923 13.281 152.262 M44.457 152.291 L 43.782 152.619 44.457 152.490 C 44.828 152.418,45.228 152.266,45.346 152.151 C 45.662 151.841,45.245 151.907,44.457 152.291 M92.966 152.145 C 93.433 152.415,94.981 152.698,94.541 152.432 C 94.356 152.320,93.849 152.166,93.416 152.089 C 92.926 152.002,92.756 152.023,92.966 152.145 M131.908 152.294 L 131.120 152.613 131.908 152.476 C 132.801 152.322,133.625 151.947,133.033 151.965 C 132.847 151.971,132.341 152.119,131.908 152.294 M199.437 152.136 C 199.623 152.254,200.180 152.412,200.675 152.488 C 201.290 152.581,201.433 152.562,201.125 152.425 C 200.434 152.118,199.030 151.878,199.437 152.136 M237.141 152.273 C 236.646 152.436,236.443 152.576,236.691 152.583 C 236.939 152.590,237.445 152.457,237.817 152.287 C 238.674 151.894,238.313 151.887,237.141 152.273 M14.631 152.708 C 14.631 152.886,17.120 153.580,17.259 153.440 C 17.325 153.375,16.937 153.208,16.399 153.068 C 15.860 152.929,15.242 152.764,15.025 152.701 C 14.809 152.638,14.631 152.641,14.631 152.708 M96.064 152.953 C 96.592 153.125,97.504 153.319,98.090 153.383 L 99.156 153.501 97.999 153.201 C 97.362 153.036,96.450 152.843,95.973 152.771 L 95.104 152.641 96.064 152.953 M41.418 153.195 L 40.630 153.513 41.418 153.373 C 41.851 153.297,42.409 153.152,42.656 153.052 L 43.106 152.870 42.656 152.873 C 42.409 152.875,41.851 153.019,41.418 153.195 M128.567 153.108 C 128.030 153.228,127.642 153.378,127.705 153.442 C 127.833 153.570,130.332 153.091,130.332 152.938 C 130.332 152.797,129.678 152.860,128.567 153.108 M203.151 153.186 C 203.647 153.349,204.254 153.480,204.502 153.476 C 204.750 153.473,204.547 153.336,204.052 153.173 C 203.557 153.010,202.949 152.879,202.701 152.883 C 202.454 152.886,202.656 153.023,203.151 153.186 M233.652 153.194 L 232.639 153.502 233.652 153.368 C 234.209 153.295,234.868 153.153,235.115 153.053 L 235.566 152.870 235.115 152.878 C 234.868 152.883,234.209 153.025,233.652 153.194 M18.030 153.729 C 18.227 153.851,18.835 154.008,19.380 154.077 C 20.596 154.232,19.919 153.881,18.571 153.657 C 17.938 153.552,17.777 153.574,18.030 153.729 M37.971 153.901 C 37.004 154.087,36.259 154.286,36.317 154.344 C 36.435 154.462,40.518 153.745,40.518 153.606 C 40.518 153.463,39.845 153.540,37.971 153.901 M99.864 153.733 C 100.130 153.844,101.092 153.990,102.002 154.057 C 103.205 154.145,103.412 154.126,102.757 153.989 C 101.263 153.675,99.317 153.503,99.864 153.733 M125.380 153.772 C 123.582 154.065,123.464 154.214,125.149 154.064 C 125.950 153.992,126.760 153.843,126.949 153.732 C 127.382 153.479,127.139 153.485,125.380 153.772 M205.647 153.724 C 205.906 153.835,206.716 153.983,207.448 154.053 C 208.484 154.151,208.605 154.135,207.995 153.978 C 206.777 153.666,205.086 153.483,205.647 153.724 M230.163 153.869 L 228.588 154.168 230.103 154.062 C 231.524 153.962,233.327 153.527,232.189 153.558 C 231.941 153.565,231.030 153.705,230.163 153.869 M104.052 154.348 C 104.268 154.404,104.623 154.404,104.840 154.348 C 105.056 154.291,104.879 154.245,104.446 154.245 C 104.012 154.245,103.835 154.291,104.052 154.348 M209.173 154.348 C 209.389 154.404,209.744 154.404,209.961 154.348 C 210.177 154.291,210.000 154.245,209.567 154.245 C 209.133 154.245,208.956 154.291,209.173 154.348 M22.622 154.674 C 23.472 154.985,33.199 154.977,34.778 154.665 C 35.745 154.473,35.619 154.459,33.877 154.560 C 30.912 154.733,25.577 154.739,23.635 154.572 C 22.271 154.455,22.076 154.474,22.622 154.674 M106.697 154.668 C 108.288 154.954,119.254 154.951,120.878 154.664 C 121.892 154.485,121.665 154.467,119.618 154.566 C 116.188 154.733,111.150 154.738,108.047 154.578 C 105.956 154.471,105.696 154.488,106.697 154.668 M212.043 154.680 C 213.358 154.994,224.934 154.984,225.999 154.668 C 226.624 154.483,226.391 154.463,224.873 154.571 C 222.422 154.745,215.932 154.746,213.168 154.572 C 211.356 154.459,211.184 154.475,212.043 154.680 " stroke="none" fill="#b0befc" fill-rule="evenodd"></path><path id="path4" d="M214.791 46.137 C 213.517 46.234,212.436 46.352,212.390 46.398 C 212.343 46.445,215.239 46.483,218.826 46.483 C 222.412 46.483,225.012 46.414,224.603 46.331 C 223.335 46.071,217.224 45.950,214.791 46.137 M209.454 46.937 C 208.711 47.105,207.960 47.248,207.785 47.256 C 207.609 47.264,207.522 47.327,207.590 47.395 C 207.713 47.518,211.618 46.860,211.799 46.686 C 211.982 46.509,210.784 46.638,209.454 46.937 M226.337 46.798 C 226.584 46.903,227.344 47.052,228.025 47.130 C 228.787 47.218,229.090 47.198,228.813 47.079 C 228.565 46.973,227.805 46.823,227.124 46.747 C 226.375 46.663,226.064 46.683,226.337 46.798 M205.997 47.754 C 205.581 47.874,205.292 48.023,205.355 48.086 C 205.484 48.215,207.316 47.761,207.316 47.600 C 207.316 47.451,206.867 47.504,205.997 47.754 M230.501 47.685 C 230.687 47.800,231.193 47.961,231.626 48.042 C 232.150 48.141,232.301 48.121,232.077 47.982 C 231.891 47.867,231.384 47.706,230.951 47.624 C 230.428 47.526,230.276 47.546,230.501 47.685 M203.866 48.498 C 202.888 48.847,202.407 49.216,203.264 48.959 C 204.100 48.709,205.211 48.209,204.952 48.199 C 204.828 48.195,204.340 48.329,203.866 48.498 M232.527 48.262 C 232.527 48.317,232.907 48.479,233.371 48.623 C 241.788 51.235,250.758 58.094,255.959 65.895 C 257.265 67.854,257.863 68.563,257.053 67.192 C 254.296 62.527,248.924 56.946,243.970 53.600 C 240.524 51.273,232.527 47.542,232.527 48.262 M201.463 49.426 L 200.900 49.766 201.463 49.616 C 202.280 49.400,202.815 49.085,202.364 49.086 C 202.178 49.087,201.773 49.240,201.463 49.426 M199.236 50.428 C 198.445 50.802,197.846 51.157,197.905 51.216 C 198.017 51.328,200.788 50.008,200.788 49.842 C 200.788 49.696,200.769 49.703,199.236 50.428 M196.472 51.891 C 191.359 54.554,184.272 61.229,181.137 66.336 C 181.038 66.497,181.009 66.629,181.072 66.629 C 181.136 66.629,181.607 66.011,182.120 65.256 C 182.895 64.115,184.192 62.527,186.382 60.038 C 188.120 58.062,193.012 54.172,195.779 52.565 C 196.801 51.972,197.636 51.450,197.636 51.405 C 197.636 51.286,197.625 51.291,196.472 51.891 M180.127 67.923 C 179.296 69.241,177.826 72.098,177.832 72.384 C 177.834 72.500,178.340 71.645,178.957 70.484 C 179.573 69.324,180.288 68.032,180.546 67.614 C 180.805 67.196,180.968 66.854,180.908 66.854 C 180.849 66.854,180.498 67.335,180.127 67.923 M258.827 70.793 C 259.545 72.279,260.303 73.849,260.513 74.282 C 260.761 74.797,260.844 74.875,260.751 74.508 C 260.563 73.762,258.322 69.116,257.874 68.542 C 257.681 68.295,258.110 69.308,258.827 70.793 M177.384 73.253 C 177.049 74.133,177.116 74.271,177.517 73.531 C 177.707 73.180,177.807 72.836,177.739 72.768 C 177.671 72.700,177.511 72.918,177.384 73.253 M176.581 75.287 C 176.364 75.854,176.241 76.372,176.307 76.438 C 176.373 76.504,176.590 76.079,176.789 75.495 C 177.260 74.112,177.093 73.946,176.581 75.287 M261.041 75.746 C 261.115 76.117,261.260 76.573,261.363 76.759 C 261.700 77.365,261.584 76.505,261.226 75.746 L 260.908 75.070 261.041 75.746 M175.705 77.900 C 175.512 78.552,175.397 79.130,175.450 79.183 C 175.503 79.236,175.705 78.745,175.898 78.093 C 176.092 77.441,176.207 76.864,176.154 76.811 C 176.101 76.758,175.899 77.248,175.705 77.900 M261.653 77.546 C 262.059 79.211,262.281 79.944,262.354 79.870 C 262.483 79.742,262.028 77.861,261.769 77.453 C 261.581 77.156,261.561 77.172,261.653 77.546 M174.920 80.821 C 174.631 82.169,174.624 82.389,174.883 81.936 C 175.115 81.529,175.439 79.685,175.278 79.685 C 175.215 79.685,175.054 80.196,174.920 80.821 M262.605 81.121 C 262.740 82.342,263.118 83.556,263.104 82.724 C 263.100 82.476,262.959 81.767,262.791 81.148 L 262.485 80.023 262.605 81.121 M263.331 85.200 C 263.412 86.190,263.478 88.824,263.478 91.052 C 263.478 93.281,263.412 95.914,263.331 96.905 C 263.204 98.455,263.219 98.580,263.434 97.805 C 263.588 97.250,263.685 94.660,263.685 91.052 C 263.685 87.445,263.588 84.854,263.434 84.299 C 263.219 83.525,263.204 83.650,263.331 85.200 M174.077 85.238 C 173.768 87.761,173.933 96.455,174.323 98.143 C 174.509 98.948,174.614 99.201,174.556 98.706 C 174.055 94.394,173.942 90.899,174.196 87.512 C 174.474 83.785,174.409 82.534,174.077 85.238 M262.852 99.606 C 262.505 101.206,262.472 102.113,262.807 100.844 C 262.987 100.163,263.104 99.454,263.066 99.268 C 263.029 99.083,262.933 99.235,262.852 99.606 M174.813 100.844 C 174.890 101.401,175.044 102.009,175.157 102.195 C 175.405 102.606,175.156 100.948,174.869 100.281 C 174.744 99.993,174.724 100.194,174.813 100.844 M261.940 103.470 C 261.739 104.177,261.617 104.798,261.668 104.850 C 261.720 104.902,261.930 104.369,262.135 103.665 C 262.339 102.962,262.461 102.341,262.406 102.286 C 262.350 102.230,262.141 102.763,261.940 103.470 M175.374 102.773 C 175.340 103.139,176.044 105.404,176.157 105.291 C 176.211 105.237,176.062 104.594,175.826 103.862 C 175.590 103.131,175.387 102.641,175.374 102.773 M261.114 105.909 C 260.966 106.359,260.895 106.777,260.957 106.839 C 261.019 106.901,261.191 106.584,261.339 106.134 C 261.488 105.684,261.559 105.265,261.497 105.203 C 261.435 105.141,261.263 105.459,261.114 105.909 M176.276 105.796 C 176.270 105.982,176.463 106.539,176.706 107.034 C 176.953 107.537,177.087 107.686,177.010 107.372 C 176.797 106.506,176.290 105.418,176.276 105.796 M260.345 108.066 C 260.139 108.582,260.012 109.046,260.064 109.098 C 260.115 109.149,260.326 108.769,260.533 108.254 C 260.739 107.738,260.866 107.274,260.814 107.222 C 260.763 107.170,260.552 107.550,260.345 108.066 M177.281 108.497 C 177.362 108.807,177.518 109.156,177.628 109.274 C 177.949 109.618,177.851 109.125,177.473 108.497 L 177.134 107.935 177.281 108.497 M259.261 110.467 C 258.472 112.200,258.423 112.324,258.528 112.324 C 258.645 112.324,259.455 110.771,259.767 109.953 C 260.136 108.981,259.766 109.357,259.261 110.467 M177.831 109.718 C 177.821 110.314,181.425 116.601,181.776 116.601 C 181.921 116.601,181.830 116.439,180.956 115.138 C 180.623 114.643,179.784 113.174,179.093 111.874 C 178.401 110.574,177.833 109.604,177.831 109.718 M257.823 113.281 C 257.615 113.683,257.298 114.266,257.118 114.575 C 256.803 115.115,256.805 115.120,257.169 114.688 C 257.613 114.160,258.473 112.549,258.311 112.549 C 258.250 112.549,258.030 112.878,257.823 113.281 M256.450 115.532 C 256.010 116.101,255.860 116.450,256.126 116.286 C 256.393 116.121,256.926 115.250,256.760 115.250 C 256.709 115.250,256.569 115.377,256.450 115.532 M254.294 118.514 C 253.467 119.567,252.865 120.424,252.957 120.419 C 253.115 120.410,255.402 117.572,255.779 116.914 C 256.195 116.191,255.708 116.716,254.294 118.514 M182.077 117.220 C 183.321 119.516,190.285 126.362,193.247 128.201 C 194.227 128.810,193.966 128.575,191.334 126.487 C 188.483 124.226,185.402 121.161,183.472 118.666 C 182.089 116.878,181.640 116.413,182.077 117.220 M251.101 122.161 C 248.791 124.694,246.075 126.854,241.178 130.054 C 240.939 130.210,241.097 130.171,241.531 129.967 C 244.223 128.696,253.951 120.575,252.667 120.669 C 252.547 120.678,251.842 121.349,251.101 122.161 M194.105 128.688 C 194.264 128.945,196.954 130.561,197.693 130.843 C 198.531 131.163,198.027 130.758,196.792 130.119 C 196.080 129.751,195.149 129.220,194.722 128.940 C 194.295 128.660,194.018 128.547,194.105 128.688 M239.617 130.782 C 239.246 131.028,237.980 131.642,236.804 132.145 C 233.652 133.496,233.658 133.493,234.440 133.337 C 235.195 133.186,240.630 130.660,240.630 130.460 C 240.630 130.225,240.299 130.331,239.617 130.782 M198.312 131.126 C 198.312 131.235,199.572 131.908,199.777 131.908 C 199.852 131.908,199.858 131.816,199.789 131.705 C 199.656 131.490,198.312 130.963,198.312 131.126 M200.113 132.032 C 200.113 132.169,201.572 132.814,201.850 132.799 C 202.056 132.788,200.532 131.931,200.281 131.917 C 200.189 131.912,200.113 131.964,200.113 132.032 M202.364 132.995 C 202.549 133.110,202.954 133.272,203.264 133.354 C 203.655 133.459,203.724 133.441,203.489 133.296 C 203.303 133.182,202.898 133.020,202.589 132.937 C 202.198 132.833,202.129 132.850,202.364 132.995 M203.939 133.582 C 203.939 133.737,207.552 134.789,208.554 134.926 L 209.454 135.049 208.666 134.809 C 204.650 133.586,203.939 133.401,203.939 133.582 M232.527 133.758 C 232.093 133.887,231.855 134.034,231.996 134.086 C 232.137 134.138,232.593 134.031,233.009 133.850 C 233.888 133.466,233.657 133.422,232.527 133.758 M229.420 134.606 C 229.012 134.703,228.606 134.853,228.520 134.941 C 228.337 135.124,229.947 134.856,230.613 134.591 L 231.064 134.412 230.613 134.421 C 230.366 134.426,229.829 134.509,229.420 134.606 M210.867 135.399 C 211.520 135.558,212.888 135.746,213.906 135.816 C 215.579 135.930,215.486 135.901,212.943 135.510 C 209.721 135.015,209.176 134.986,210.867 135.399 M224.536 135.514 C 223.174 135.733,222.364 135.923,222.735 135.935 C 223.525 135.961,227.823 135.336,227.987 135.171 C 228.168 134.991,227.180 135.089,224.536 135.514 " stroke="none" fill="#8cbeae" fill-rule="evenodd"></path></g></svg>