<?xml version="1.0" encoding="UTF-8"?>
<!DOCTYPE svg PUBLIC "-//W3C//DTD SVG 1.1//EN" "http://www.w3.org/Graphics/SVG/1.1/DTD/svg11.dtd">
<svg xmlns="http://www.w3.org/2000/svg" version="1.1" width="525px" height="163px" style="shape-rendering:geometricPrecision; text-rendering:geometricPrecision; image-rendering:optimizeQuality; fill-rule:evenodd; clip-rule:evenodd" xmlns:xlink="http://www.w3.org/1999/xlink">
<g><path style="opacity:0.496" fill="#917919" d="M 54.5,1.5 C 56.8333,1.5 59.1667,1.5 61.5,1.5C 61.1583,2.33825 60.4916,2.67158 59.5,2.5C 46.5,2.5 33.5,2.5 20.5,2.5C 24.6309,1.43789 28.9643,0.77122 33.5,0.5C 40.4789,1.29036 47.4789,1.62369 54.5,1.5 Z"/></g>
<g><path style="opacity:0.466" fill="#356972" d="M 54.5,1.5 C 70.6615,0.338463 86.9948,0.171797 103.5,1C 105.852,1.24013 107.852,2.07346 109.5,3.5C 99.026,2.22803 88.6926,2.22803 78.5,3.5C 72.9895,1.78967 67.3228,1.12301 61.5,1.5C 59.1667,1.5 56.8333,1.5 54.5,1.5 Z"/></g>
<g><path style="opacity:0.497" fill="#7d6a2c" d="M 223.5,2.5 C 201.833,2.5 180.167,2.5 158.5,2.5C 160.631,1.68618 162.964,1.18618 165.5,1C 183.167,0.333333 200.833,0.333333 218.5,1C 220.382,1.19808 222.048,1.69808 223.5,2.5 Z"/></g>
<g><path style="opacity:0.501" fill="#2f6873" d="M 335.5,6.5 C 326.488,3.22129 317.155,1.88796 307.5,2.5C 302.833,2.66667 298.167,2.83333 293.5,3C 289.888,4.15004 286.222,4.98337 282.5,5.5C 290.853,2.01008 299.686,0.343415 309,0.5C 314.205,0.610079 319.372,1.11008 324.5,2C 328.619,2.64415 332.285,4.14415 335.5,6.5 Z"/></g>
<g><path style="opacity:0.376" fill="#3b562f" d="M 389.5,2.5 C 385.167,2.5 380.833,2.5 376.5,2.5C 380.833,-0.166667 385.167,-0.166667 389.5,2.5 Z"/></g>
<g><path style="opacity:0.376" fill="#6b3766" d="M 485.5,2.5 C 479.677,2.12301 474.011,2.78967 468.5,4.5C 472.775,0.84315 477.775,-0.323516 483.5,1C 484.416,1.27842 485.082,1.77842 485.5,2.5 Z"/></g>
<g><path style="opacity:0.071" fill="#5a3957" d="M 485.5,2.5 C 488.089,2.46095 490.089,3.46095 491.5,5.5C 489.181,5.00751 487.181,4.00751 485.5,2.5 Z"/></g>
<g><path style="opacity:1" fill="#f9ca03" d="M 20.5,2.5 C 33.5,2.5 46.5,2.5 59.5,2.5C 46.9656,9.6008 43.799,19.6008 50,32.5C 52.4057,36.4085 55.5724,39.4085 59.5,41.5C 47.1667,41.5 34.8333,41.5 22.5,41.5C 14.4595,39.4596 9.45951,34.4596 7.5,26.5C 7.46716,22.1311 7.80049,17.7978 8.5,13.5C 10.5701,7.76454 14.5701,4.09788 20.5,2.5 Z"/></g>
<g><path style="opacity:1" fill="#0cb002" d="M 61.5,1.5 C 67.3228,1.12301 72.9895,1.78967 78.5,3.5C 95.1692,7.66423 107.503,17.3309 115.5,32.5C 115.5,33.1667 115.5,33.8333 115.5,34.5C 111.731,38.5965 107.064,40.9299 101.5,41.5C 91.1667,41.5 80.8333,41.5 70.5,41.5C 66.8333,41.5 63.1667,41.5 59.5,41.5C 55.5724,39.4085 52.4057,36.4085 50,32.5C 43.799,19.6008 46.9656,9.6008 59.5,2.5C 60.4916,2.67158 61.1583,2.33825 61.5,1.5 Z"/></g>
<g><path style="opacity:1" fill="#09d2f4" d="M 78.5,3.5 C 88.6926,2.22803 99.026,2.22803 109.5,3.5C 113.5,4.83333 116.167,7.5 117.5,11.5C 119.701,17.7205 120.035,24.0538 118.5,30.5C 117.5,31.1667 116.5,31.8333 115.5,32.5C 107.503,17.3309 95.1692,7.66423 78.5,3.5 Z"/></g>
<g><path style="opacity:0.639" fill="#967c26" d="M 158.5,2.5 C 154.767,4.41104 150.767,5.74437 146.5,6.5C 150.085,4.19393 154.085,2.8606 158.5,2.5 Z"/></g>
<g><path style="opacity:1" fill="#fdcd01" d="M 158.5,2.5 C 180.167,2.5 201.833,2.5 223.5,2.5C 230.131,4.46443 234.464,8.79776 236.5,15.5C 236.587,20.5365 236.254,25.5365 235.5,30.5C 234.094,30.9731 233.427,31.9731 233.5,33.5C 233.5,34.1667 233.167,34.5 232.5,34.5C 231.167,35.1667 230.167,36.1667 229.5,37.5C 229.027,38.9063 228.027,39.573 226.5,39.5C 206.026,40.1324 185.693,40.7991 165.5,41.5C 164.5,41.8333 163.833,42.5 163.5,43.5C 163.5,44.1667 163.167,44.5 162.5,44.5C 160.172,46.1661 159.172,48.4995 159.5,51.5C 159.463,54.9692 161.13,56.9692 164.5,57.5C 164.918,58.2216 165.584,58.7216 166.5,59C 172.491,59.4995 178.491,59.6662 184.5,59.5C 170.465,65.2766 166.632,75.2766 173,89.5C 176.183,93.5378 180.016,96.5378 184.5,98.5C 176.833,98.5 169.167,98.5 161.5,98.5C 157.097,96.5922 152.43,95.2589 147.5,94.5C 141.993,92.3234 137.326,88.9901 133.5,84.5C 132.864,82.2054 131.531,80.5387 129.5,79.5C 128.5,79.1667 127.833,78.5 127.5,77.5C 127.785,75.712 127.452,74.0453 126.5,72.5C 125.34,70.2894 124.007,68.2894 122.5,66.5C 121.596,65.791 121.263,64.791 121.5,63.5C 120.761,54.529 120.761,45.529 121.5,36.5C 121.5,36.1667 121.5,35.8333 121.5,35.5C 124.391,31.5182 126.724,27.1848 128.5,22.5C 128.738,20.5956 129.738,19.2623 131.5,18.5C 133.5,17.1667 135.167,15.5 136.5,13.5C 140.268,11.6306 143.602,9.29726 146.5,6.5C 150.767,5.74437 154.767,4.41104 158.5,2.5 Z"/></g>
<g><path style="opacity:1" fill="#0cae05" d="M 376.5,2.5 C 380.833,2.5 385.167,2.5 389.5,2.5C 392.231,5.04964 395.231,7.38297 398.5,9.5C 401.874,11.8739 404.541,14.8739 406.5,18.5C 405.206,17.7101 404.039,16.7101 403,15.5C 402.5,35.1638 402.333,54.8305 402.5,74.5C 388.342,59.686 375.342,44.0193 363.5,27.5C 363.5,23.5 363.5,19.5 363.5,15.5C 365.5,8.83333 369.833,4.5 376.5,2.5 Z"/></g>
<g><path style="opacity:1" fill="#fe00fd" d="M 485.5,2.5 C 487.181,4.00751 489.181,5.00751 491.5,5.5C 492.5,5.83333 493.167,6.5 493.5,7.5C 493.738,9.40435 494.738,10.7377 496.5,11.5C 496.517,13.5648 496.85,15.5648 497.5,17.5C 497.832,54.0038 497.498,90.3372 496.5,126.5C 484.167,111.833 471.833,97.1667 459.5,82.5C 459.5,82.1667 459.5,81.8333 459.5,81.5C 459.22,58.8112 459.553,36.1445 460.5,13.5C 461.906,13.0269 462.573,12.0269 462.5,10.5C 464.833,8.83333 466.833,6.83333 468.5,4.5C 474.011,2.78967 479.677,2.12301 485.5,2.5 Z"/></g>
<g><path style="opacity:1" fill="#3a6d2d" d="M 389.5,2.5 C 392.09,3.12835 394.423,4.29501 396.5,6C 397.823,6.81595 398.489,7.98261 398.5,9.5C 395.231,7.38297 392.231,5.04964 389.5,2.5 Z"/></g>
<g><path style="opacity:0.145" fill="#2d5c62" d="M 282.5,5.5 C 280.664,7.58797 278.331,8.9213 275.5,9.5C 277.336,7.41203 279.669,6.0787 282.5,5.5 Z"/></g>
<g><path style="opacity:0.569" fill="#907926" d="M 146.5,6.5 C 143.602,9.29726 140.268,11.6306 136.5,13.5C 139.125,10.1848 142.458,7.85144 146.5,6.5 Z"/></g>
<g><path style="opacity:0.592" fill="#8b2f83" d="M 468.5,4.5 C 466.833,6.83333 464.833,8.83333 462.5,10.5C 463.5,7.5 465.5,5.5 468.5,4.5 Z"/></g>
<g><path style="opacity:0.404" fill="#75376f" d="M 493.5,7.5 C 495.262,8.26231 496.262,9.59565 496.5,11.5C 494.738,10.7377 493.738,9.40435 493.5,7.5 Z"/></g>
<g><path style="opacity:0.18" fill="#336670" d="M 275.5,9.5 C 272.149,12.8482 268.482,15.8482 264.5,18.5C 266.55,15.9423 268.883,13.4423 271.5,11C 272.745,10.2086 274.078,9.70858 275.5,9.5 Z"/></g>
<g><path style="opacity:0.09" fill="#376169" d="M 340.5,9.5 C 345.777,11.7774 349.777,15.4441 352.5,20.5C 348.474,16.8051 344.474,13.1384 340.5,9.5 Z"/></g>
<g><path style="opacity:0.212" fill="#6e376b" d="M 462.5,10.5 C 462.573,12.0269 461.906,13.0269 460.5,13.5C 460.427,11.9731 461.094,10.9731 462.5,10.5 Z"/></g>
<g><path style="opacity:0.176" fill="#2d626c" d="M 117.5,11.5 C 118.966,12.347 119.8,13.6803 120,15.5C 120.667,19.8333 120.667,24.1667 120,28.5C 119.722,29.4158 119.222,30.0825 118.5,30.5C 120.035,24.0538 119.701,17.7205 117.5,11.5 Z"/></g>
<g><path style="opacity:0.38" fill="#716228" d="M 136.5,13.5 C 135.167,15.5 133.5,17.1667 131.5,18.5C 132.167,15.8333 133.833,14.1667 136.5,13.5 Z"/></g>
<g><path style="opacity:1" fill="#faca03" d="M 406.5,18.5 C 407.08,20.7488 408.413,22.4154 410.5,23.5C 411.08,25.7488 412.413,27.4154 414.5,28.5C 415.5,28.8333 416.167,29.5 416.5,30.5C 417.08,32.7488 418.413,34.4154 420.5,35.5C 421.757,38.4274 423.757,40.7607 426.5,42.5C 427.419,45.0892 429.086,47.0892 431.5,48.5C 432.419,51.0892 434.086,53.0892 436.5,54.5C 439.55,56.5491 441.883,59.2157 443.5,62.5C 444.08,64.7488 445.413,66.4154 447.5,67.5C 448.419,70.0892 450.086,72.0892 452.5,73.5C 453.787,76.4532 455.787,78.7865 458.5,80.5C 458.5,81.1667 458.833,81.5 459.5,81.5C 459.5,81.8333 459.5,82.1667 459.5,82.5C 459.333,102.169 459.5,121.836 460,141.5C 460.608,143.154 461.108,144.821 461.5,146.5C 446.487,129.485 431.821,112.152 417.5,94.5C 417.5,92.5 416.5,91.5 414.5,91.5C 413.833,90.5 413.167,89.5 412.5,88.5C 411.19,85.5268 409.19,83.1935 406.5,81.5C 405.92,79.2512 404.587,77.5846 402.5,76.5C 402.5,75.8333 402.5,75.1667 402.5,74.5C 402.333,54.8305 402.5,35.1638 403,15.5C 404.039,16.7101 405.206,17.7101 406.5,18.5 Z"/></g>
<g><path style="opacity:0.231" fill="#726333" d="M 8.5,13.5 C 7.80049,17.7978 7.46716,22.1311 7.5,26.5C 6.84014,25.036 6.50681,23.3693 6.5,21.5C 6.38165,18.5143 7.04832,15.8476 8.5,13.5 Z"/></g>
<g><path style="opacity:0.604" fill="#7e6b2c" d="M 406.5,18.5 C 408.587,19.5846 409.92,21.2512 410.5,23.5C 408.413,22.4154 407.08,20.7488 406.5,18.5 Z"/></g>
<g><path style="opacity:0.974" fill="#ea00da" d="M 497.5,17.5 C 498.498,54.9963 498.832,92.663 498.5,130.5C 497.326,129.486 496.66,128.153 496.5,126.5C 497.498,90.3372 497.832,54.0038 497.5,17.5 Z"/></g>
<g><path style="opacity:0.388" fill="#6c5e2e" d="M 236.5,15.5 C 239.209,20.6501 238.876,25.6501 235.5,30.5C 236.254,25.5365 236.587,20.5365 236.5,15.5 Z"/></g>
<g><path style="opacity:0.463" fill="#8c7822" d="M 128.5,22.5 C 126.724,27.1848 124.391,31.5182 121.5,35.5C 122.551,30.3926 124.885,26.0592 128.5,22.5 Z"/></g>
<g><path style="opacity:0.804" fill="#8f7826" d="M 410.5,23.5 C 412.587,24.5846 413.92,26.2512 414.5,28.5C 412.413,27.4154 411.08,25.7488 410.5,23.5 Z"/></g>
<g><path style="opacity:0.082" fill="#315b5c" d="M 363.5,15.5 C 363.5,19.5 363.5,23.5 363.5,27.5C 363.666,33.5092 363.499,39.5092 363,45.5C 362.118,42.2105 361.452,38.8772 361,35.5C 359.544,32.9676 358.377,30.3009 357.5,27.5C 359.451,29.48 360.951,31.8133 362,34.5C 362.172,27.9867 362.672,21.6534 363.5,15.5 Z"/></g>
<g><path style="opacity:0.024" fill="#665d2d" d="M 235.5,30.5 C 235.573,32.0269 234.906,33.0269 233.5,33.5C 233.427,31.9731 234.094,30.9731 235.5,30.5 Z"/></g>
<g><path style="opacity:0.569" fill="#847323" d="M 416.5,30.5 C 418.587,31.5846 419.92,33.2512 420.5,35.5C 418.413,34.4154 417.08,32.7488 416.5,30.5 Z"/></g>
<g><path style="opacity:0.663" fill="#316f7c" d="M 259.5,24.5 C 257.867,28.4291 255.867,32.0957 253.5,35.5C 254.22,31.0551 256.22,27.3884 259.5,24.5 Z"/></g>
<g><path style="opacity:1" fill="#03d6fb" d="M 335.5,6.5 C 337.674,6.74973 339.341,7.74973 340.5,9.5C 344.474,13.1384 348.474,16.8051 352.5,20.5C 354.9,22.2964 356.567,24.6298 357.5,27.5C 358.377,30.3009 359.544,32.9676 361,35.5C 361.452,38.8772 362.118,42.2105 363,45.5C 363.499,39.5092 363.666,33.5092 363.5,27.5C 375.342,44.0193 388.342,59.686 402.5,74.5C 402.5,75.1667 402.5,75.8333 402.5,76.5C 402.667,97.1694 402.5,117.836 402,138.5C 400.729,141.484 399.562,144.484 398.5,147.5C 389.465,157.148 379.465,157.981 368.5,150C 366.266,148.362 364.933,146.195 364.5,143.5C 363.62,132.527 363.287,121.527 363.5,110.5C 363.667,97.4957 363.5,84.4957 363,71.5C 358.796,59.3131 350.296,54.1464 337.5,56C 331.369,58.6359 326.703,62.8026 323.5,68.5C 323.666,61.825 323.5,55.1583 323,48.5C 322.578,46.5743 321.411,45.5743 319.5,45.5C 318.833,44.8333 318.167,44.1667 317.5,43.5C 317.389,42.8826 317.056,42.3826 316.5,42C 311.167,41.3333 305.833,41.3333 300.5,42C 298.563,42.1216 297.23,42.955 296.5,44.5C 295.833,45.8333 294.833,46.8333 293.5,47.5C 292.21,48.0577 291.377,49.0577 291,50.5C 290.5,65.4963 290.333,80.4963 290.5,95.5C 283.967,81.8998 273.633,77.7331 259.5,83C 256.601,85.7291 253.934,88.5624 251.5,91.5C 251.333,75.1633 251.5,58.8299 252,42.5C 252.977,40.26 253.477,37.9267 253.5,35.5C 255.867,32.0957 257.867,28.4291 259.5,24.5C 260.419,21.9108 262.086,19.9108 264.5,18.5C 268.482,15.8482 272.149,12.8482 275.5,9.5C 278.331,8.9213 280.664,7.58797 282.5,5.5C 286.222,4.98337 289.888,4.15004 293.5,3C 298.167,2.83333 302.833,2.66667 307.5,2.5C 317.155,1.88796 326.488,3.22129 335.5,6.5 Z"/></g>
<g><path style="opacity:0.122" fill="#4c5a4f" d="M 118.5,30.5 C 117.781,32.7638 117.448,35.0971 117.5,37.5C 116.833,36.5 116.167,35.5 115.5,34.5C 115.5,33.8333 115.5,33.1667 115.5,32.5C 116.5,31.8333 117.5,31.1667 118.5,30.5 Z"/></g>
<g><path style="opacity:1" fill="#fccb00" d="M 115.5,34.5 C 116.167,35.5 116.833,36.5 117.5,37.5C 118.434,38.5676 118.768,39.901 118.5,41.5C 119.432,52.4617 119.765,63.4617 119.5,74.5C 112.661,62.2569 102.661,58.7569 89.5,64C 85.4622,67.183 82.4622,71.0164 80.5,75.5C 80.6664,67.4931 80.4997,59.4931 80,51.5C 79.7216,50.5842 79.2216,49.9175 78.5,49.5C 77.0256,48.5637 76.0256,47.2303 75.5,45.5C 75.0472,44.5416 74.3805,43.7083 73.5,43C 83.009,42.8299 92.3423,42.3299 101.5,41.5C 107.064,40.9299 111.731,38.5965 115.5,34.5 Z"/></g>
<g><path style="opacity:0.004" fill="#3b3626" d="M 232.5,34.5 C 232.5,36.5 231.5,37.5 229.5,37.5C 230.167,36.1667 231.167,35.1667 232.5,34.5 Z"/></g>
<g><path style="opacity:0.396" fill="#7f6d2a" d="M 420.5,35.5 C 423.243,37.2393 425.243,39.5726 426.5,42.5C 423.757,40.7607 421.757,38.4274 420.5,35.5 Z"/></g>
<g><path style="opacity:0.69" fill="#bc9807" d="M 226.5,39.5 C 224.898,41.0739 222.898,41.7406 220.5,41.5C 202.167,41.5 183.833,41.5 165.5,41.5C 185.693,40.7991 206.026,40.1324 226.5,39.5 Z"/></g>
<g><path style="opacity:0.192" fill="#686035" d="M 22.5,41.5 C 34.8333,41.5 47.1667,41.5 59.5,41.5C 63.1667,41.5 66.8333,41.5 70.5,41.5C 70.8333,42.1667 71.1667,42.8333 71.5,43.5C 55.0385,42.8615 38.7052,42.1948 22.5,41.5 Z"/></g>
<g><path style="opacity:1" fill="#b2a910" d="M 70.5,41.5 C 80.8333,41.5 91.1667,41.5 101.5,41.5C 92.3423,42.3299 83.009,42.8299 73.5,43C 74.3805,43.7083 75.0472,44.5416 75.5,45.5C 73.9382,45.2671 72.6049,44.6005 71.5,43.5C 71.1667,42.8333 70.8333,42.1667 70.5,41.5 Z"/></g>
<g><path style="opacity:0.051" fill="#544e3c" d="M 165.5,41.5 C 183.833,41.5 202.167,41.5 220.5,41.5C 201.628,42.1907 182.628,42.8574 163.5,43.5C 163.833,42.5 164.5,41.8333 165.5,41.5 Z"/></g>
<g><path style="opacity:0.227" fill="#31626c" d="M 317.5,43.5 C 310.374,41.9466 303.374,42.28 296.5,44.5C 297.23,42.955 298.563,42.1216 300.5,42C 305.833,41.3333 311.167,41.3333 316.5,42C 317.056,42.3826 317.389,42.8826 317.5,43.5 Z"/></g>
<g><path style="opacity:0.639" fill="#826e2f" d="M 426.5,42.5 C 428.914,43.9108 430.581,45.9108 431.5,48.5C 429.086,47.0892 427.419,45.0892 426.5,42.5 Z"/></g>
<g><path style="opacity:0.678" fill="#8b7728" d="M 431.5,48.5 C 433.914,49.9108 435.581,51.9108 436.5,54.5C 434.086,53.0892 432.419,51.0892 431.5,48.5 Z"/></g>
<g><path style="opacity:0.54" fill="#987a23" d="M 121.5,36.5 C 120.761,45.529 120.761,54.529 121.5,63.5C 120.509,70.3134 120.175,77.3134 120.5,84.5C 120.167,84.5 119.833,84.5 119.5,84.5C 119.5,81.1667 119.5,77.8333 119.5,74.5C 119.765,63.4617 119.432,52.4617 118.5,41.5C 120.028,40.1979 121.028,38.5313 121.5,36.5 Z"/></g>
<g><path style="opacity:0.848" fill="#17a9c6" d="M 253.5,35.5 C 253.477,37.9267 252.977,40.26 252,42.5C 251.5,58.8299 251.333,75.1633 251.5,91.5C 251.672,92.4916 251.338,93.1583 250.5,93.5C 250.5,77.5 250.5,61.5 250.5,45.5C 250.723,41.8379 251.723,38.5046 253.5,35.5 Z"/></g>
<g><path style="opacity:1" fill="#a48722" d="M 162.5,44.5 C 159.77,49.3231 160.437,53.6564 164.5,57.5C 161.13,56.9692 159.463,54.9692 159.5,51.5C 159.172,48.4995 160.172,46.1661 162.5,44.5 Z"/></g>
<g><path style="opacity:1" fill="#17b00c" d="M 363.5,110.5 C 363.167,110.5 362.833,110.5 362.5,110.5C 362.666,100.828 362.5,91.1609 362,81.5C 358.794,90.3677 352.461,95.0344 343,95.5C 332.685,94.6747 326.185,89.3413 323.5,79.5C 323.5,76.8333 323.5,74.1667 323.5,71.5C 323.5,70.5 323.5,69.5 323.5,68.5C 326.703,62.8026 331.369,58.6359 337.5,56C 350.296,54.1464 358.796,59.3131 363,71.5C 363.5,84.4957 363.667,97.4957 363.5,110.5 Z"/></g>
<g><path style="opacity:0.29" fill="#6b6525" d="M 164.5,57.5 C 174.127,58.4215 183.794,58.7548 193.5,58.5C 193.5,58.8333 193.5,59.1667 193.5,59.5C 190.5,59.5 187.5,59.5 184.5,59.5C 178.491,59.6662 172.491,59.4995 166.5,59C 165.584,58.7216 164.918,58.2216 164.5,57.5 Z"/></g>
<g><path style="opacity:0.443" fill="#672561" d="M 460.5,13.5 C 459.553,36.1445 459.22,58.8112 459.5,81.5C 458.833,81.5 458.5,81.1667 458.5,80.5C 458.5,78.8333 458.5,77.1667 458.5,75.5C 457.072,55.8234 457.238,36.1567 459,16.5C 459.232,15.2625 459.732,14.2625 460.5,13.5 Z"/></g>
<g><path style="opacity:1" fill="#08b003" d="M 184.5,59.5 C 187.5,59.5 190.5,59.5 193.5,59.5C 209.932,66.2971 213.432,77.2971 204,92.5C 200.649,94.9205 197.149,96.9205 193.5,98.5C 190.5,98.5 187.5,98.5 184.5,98.5C 180.016,96.5378 176.183,93.5378 173,89.5C 166.632,75.2766 170.465,65.2766 184.5,59.5 Z"/></g>
<g><path style="opacity:1" fill="#09d3f8" d="M 193.5,59.5 C 193.5,59.1667 193.5,58.8333 193.5,58.5C 199.923,58.2088 206.256,58.5422 212.5,59.5C 222.534,63.3596 231.534,69.0263 239.5,76.5C 241.262,77.2623 242.262,78.5956 242.5,80.5C 244.654,85.4785 246.821,90.4785 249,95.5C 249.5,103.493 249.666,111.493 249.5,119.5C 244.118,139.191 231.452,151.191 211.5,155.5C 208.5,155.5 205.5,155.5 202.5,155.5C 215.23,148.142 218.396,137.808 212,124.5C 208.518,121.161 204.685,118.494 200.5,116.5C 208.982,116.235 212.149,111.901 210,103.5C 209.578,101.574 208.411,100.574 206.5,100.5C 206.389,99.8826 206.056,99.3826 205.5,99C 201.514,98.5012 197.514,98.3345 193.5,98.5C 197.149,96.9205 200.649,94.9205 204,92.5C 213.432,77.2971 209.932,66.2971 193.5,59.5 Z"/></g>
<g><path style="opacity:0.229" fill="#325f69" d="M 319.5,45.5 C 321.411,45.5743 322.578,46.5743 323,48.5C 323.5,55.1583 323.666,61.825 323.5,68.5C 323.5,69.5 323.5,70.5 323.5,71.5C 323.167,71.5 322.833,71.5 322.5,71.5C 322.666,64.4921 322.5,57.4921 322,50.5C 321.634,48.5483 320.801,46.8816 319.5,45.5 Z"/></g>
<g><path style="opacity:0.084" fill="#3f4646" d="M 293.5,47.5 C 293.291,48.9217 292.791,50.255 292,51.5C 291.5,69.8303 291.333,88.1636 291.5,106.5C 290.833,106.5 290.5,106.167 290.5,105.5C 290.5,102.167 290.5,98.8333 290.5,95.5C 290.333,80.4963 290.5,65.4963 291,50.5C 291.377,49.0577 292.21,48.0577 293.5,47.5 Z"/></g>
<g><path style="opacity:1" fill="#fd0701" d="M 119.5,74.5 C 119.5,77.8333 119.5,81.1667 119.5,84.5C 119.167,85.8333 118.833,87.1667 118.5,88.5C 111.953,100.708 102.286,103.875 89.5,98C 86.2166,95.228 83.5499,92.0614 81.5,88.5C 81.7373,87.209 81.404,86.209 80.5,85.5C 80.5,82.1667 80.5,78.8333 80.5,75.5C 82.4622,71.0164 85.4622,67.183 89.5,64C 102.661,58.7569 112.661,62.2569 119.5,74.5 Z"/></g>
<g><path style="opacity:0.51" fill="#816f27" d="M 443.5,62.5 C 445.587,63.5846 446.92,65.2512 447.5,67.5C 445.413,66.4154 444.08,64.7488 443.5,62.5 Z"/></g>
<g><path style="opacity:0.259" fill="#83672c" d="M 78.5,49.5 C 79.2216,49.9175 79.7216,50.5842 80,51.5C 80.4997,59.4931 80.6664,67.4931 80.5,75.5C 80.5,78.8333 80.5,82.1667 80.5,85.5C 80.1667,85.5 79.8333,85.5 79.5,85.5C 79.7715,73.4625 79.4382,61.4625 78.5,49.5 Z"/></g>
<g><path style="opacity:0.408" fill="#33646f" d="M 212.5,59.5 C 223.903,61.6091 232.903,67.2758 239.5,76.5C 231.534,69.0263 222.534,63.3596 212.5,59.5 Z"/></g>
<g><path style="opacity:0.278" fill="#35686d" d="M 250.5,45.5 C 250.5,61.5 250.5,77.5 250.5,93.5C 250.5,97.8333 250.5,102.167 250.5,106.5C 250.687,110.913 251.354,115.246 252.5,119.5C 251.778,119.082 251.278,118.416 251,117.5C 250.722,118.416 250.222,119.082 249.5,119.5C 249.666,111.493 249.5,103.493 249,95.5C 246.821,90.4785 244.654,85.4785 242.5,80.5C 245.051,82.5777 246.884,85.2444 248,88.5C 248.333,88.1667 248.667,87.8333 249,87.5C 249.169,73.3273 249.669,59.3273 250.5,45.5 Z"/></g>
<g><path style="opacity:0.596" fill="#826e2a" d="M 447.5,67.5 C 449.914,68.9108 451.581,70.9108 452.5,73.5C 450.086,72.0892 448.419,70.0892 447.5,67.5 Z"/></g>
<g><path style="opacity:0.282" fill="#75346e" d="M 496.5,11.5 C 497.793,12.842 498.626,14.5087 499,16.5C 499.667,57.8333 499.667,99.1667 499,140.5C 498.768,141.737 498.268,142.737 497.5,143.5C 498.08,139.19 498.414,134.857 498.5,130.5C 498.832,92.663 498.498,54.9963 497.5,17.5C 496.85,15.5648 496.517,13.5648 496.5,11.5 Z"/></g>
<g><path style="opacity:1" fill="#9b7c22" d="M 122.5,66.5 C 124.007,68.2894 125.34,70.2894 126.5,72.5C 127.452,74.0453 127.785,75.712 127.5,77.5C 125.043,74.2488 123.376,70.5821 122.5,66.5 Z"/></g>
<g><path style="opacity:0.765" fill="#7a6831" d="M 452.5,73.5 C 454.129,74.6253 455.629,75.9586 457,77.5C 457.278,76.5842 457.778,75.9175 458.5,75.5C 458.5,77.1667 458.5,78.8333 458.5,80.5C 455.787,78.7865 453.787,76.4532 452.5,73.5 Z"/></g>
<g><path style="opacity:0.737" fill="#907a2b" d="M 129.5,79.5 C 131.531,80.5387 132.864,82.2054 133.5,84.5C 131.457,83.4206 130.124,81.754 129.5,79.5 Z"/></g>
<g><path style="opacity:1" fill="#0ab006" d="M 290.5,95.5 C 290.5,98.8333 290.5,102.167 290.5,105.5C 284.468,119.849 274.135,124.349 259.5,119C 255.118,115.701 252.118,111.534 250.5,106.5C 250.5,102.167 250.5,97.8333 250.5,93.5C 251.338,93.1583 251.672,92.4916 251.5,91.5C 253.934,88.5624 256.601,85.7291 259.5,83C 273.633,77.7331 283.967,81.8998 290.5,95.5 Z"/></g>
<g><path style="opacity:0.286" fill="#695b34" d="M 406.5,81.5 C 409.19,83.1935 411.19,85.5268 412.5,88.5C 409.781,86.7807 407.781,84.4474 406.5,81.5 Z"/></g>
<g><path style="opacity:1" fill="#fd0603" d="M 459.5,82.5 C 471.833,97.1667 484.167,111.833 496.5,126.5C 496.66,128.153 497.326,129.486 498.5,130.5C 498.414,134.857 498.08,139.19 497.5,143.5C 497.25,145.674 496.25,147.341 494.5,148.5C 492.833,149.5 491.5,150.833 490.5,152.5C 484.028,155.134 477.361,155.801 470.5,154.5C 470.027,153.094 469.027,152.427 467.5,152.5C 465.973,152.573 464.973,151.906 464.5,150.5C 464.262,148.596 463.262,147.262 461.5,146.5C 461.108,144.821 460.608,143.154 460,141.5C 459.5,121.836 459.333,102.169 459.5,82.5 Z"/></g>
<g><path style="opacity:0.294" fill="#672d62" d="M 37.5,88.5 C 30.5,85.8333 23.5,85.8333 16.5,88.5C 16.6107,87.8826 16.944,87.3826 17.5,87C 24.5899,83.6252 31.2565,84.1252 37.5,88.5 Z"/></g>
<g><path style="opacity:1" fill="#f9cb04" d="M 323.5,79.5 C 326.185,89.3413 332.685,94.6747 343,95.5C 352.461,95.0344 358.794,90.3677 362,81.5C 362.5,91.1609 362.666,100.828 362.5,110.5C 361.975,115.6 360.975,120.6 359.5,125.5C 357.992,131.195 354.992,135.862 350.5,139.5C 348.833,140.5 347.5,141.833 346.5,143.5C 339.599,150.284 331.266,154.451 321.5,156C 312.5,156.667 303.5,156.667 294.5,156C 288.322,154.901 282.655,152.734 277.5,149.5C 277.027,148.094 276.027,147.427 274.5,147.5C 272.251,146.92 270.585,145.587 269.5,143.5C 267.118,140.452 264.452,137.785 261.5,135.5C 260.702,131.636 258.702,128.636 255.5,126.5C 253.935,124.491 252.935,122.157 252.5,119.5C 251.354,115.246 250.687,110.913 250.5,106.5C 252.118,111.534 255.118,115.701 259.5,119C 274.135,124.349 284.468,119.849 290.5,105.5C 290.5,106.167 290.833,106.5 291.5,106.5C 291.898,110.737 294.065,113.737 298,115.5C 304.14,116.561 310.306,116.727 316.5,116C 318.324,115.34 319.657,114.173 320.5,112.5C 321.75,112.423 322.583,111.756 323,110.5C 323.5,100.172 323.666,89.8387 323.5,79.5 Z"/></g>
<g><path style="opacity:1" fill="#fb06f9" d="M 37.5,88.5 C 37.9731,89.9063 38.9731,90.573 40.5,90.5C 41.0798,92.7488 42.4131,94.4154 44.5,95.5C 45.2844,100.214 46.6177,104.548 48.5,108.5C 49.4194,111.089 51.086,113.089 53.5,114.5C 56.0866,115.816 59.0866,116.483 62.5,116.5C 65.5,116.333 68.5,116.167 71.5,116C 72.3805,115.292 73.0472,114.458 73.5,113.5C 76.1667,112.833 77.8333,111.167 78.5,108.5C 78.4326,107.041 78.7659,105.708 79.5,104.5C 80.1667,99.1667 80.8333,93.8333 81.5,88.5C 83.5499,92.0614 86.2166,95.228 89.5,98C 102.286,103.875 111.953,100.708 118.5,88.5C 119.493,96.6499 119.826,104.983 119.5,113.5C 119.768,115.099 119.434,116.432 118.5,117.5C 116.264,121.645 114.264,125.978 112.5,130.5C 104.197,144.116 92.1972,152.782 76.5,156.5C 67.9481,156.567 59.2814,156.401 50.5,156C 44.2748,155.535 38.6082,153.701 33.5,150.5C 33.0269,149.094 32.0269,148.427 30.5,148.5C 28.9731,148.573 27.9731,147.906 27.5,146.5C 26.4154,144.413 24.7488,143.08 22.5,142.5C 20.8333,141.5 19.5,140.167 18.5,138.5C 18.4456,136.368 17.4456,135.035 15.5,134.5C 13.4284,132.65 12.0951,130.317 11.5,127.5C 11.5979,125.447 10.9313,123.78 9.5,122.5C 9.82943,119.772 9.16276,117.438 7.5,115.5C 7.5,115.167 7.5,114.833 7.5,114.5C 7.23178,108.046 7.89845,101.713 9.5,95.5C 12.1667,93.5 14.5,91.1667 16.5,88.5C 23.5,85.8333 30.5,85.8333 37.5,88.5 Z"/></g>
<g><path style="opacity:0.287" fill="#7e702b" d="M 322.5,71.5 C 322.833,71.5 323.167,71.5 323.5,71.5C 323.5,74.1667 323.5,76.8333 323.5,79.5C 323.666,89.8387 323.5,100.172 323,110.5C 322.583,111.756 321.75,112.423 320.5,112.5C 320.709,111.078 321.209,109.745 322,108.5C 322.5,96.1712 322.667,83.8378 322.5,71.5 Z"/></g>
<g><path style="opacity:0.035" fill="#693965" d="M 37.5,88.5 C 39.0269,88.427 40.0269,89.0937 40.5,90.5C 38.9731,90.573 37.9731,89.9063 37.5,88.5 Z"/></g>
<g><path style="opacity:0.318" fill="#813275" d="M 119.5,84.5 C 119.833,84.5 120.167,84.5 120.5,84.5C 120.827,94.3478 120.494,104.014 119.5,113.5C 119.826,104.983 119.493,96.6499 118.5,88.5C 118.833,87.1667 119.167,85.8333 119.5,84.5 Z"/></g>
<g><path style="opacity:0.635" fill="#793474" d="M 40.5,90.5 C 42.5869,91.5846 43.9202,93.2512 44.5,95.5C 42.4131,94.4154 41.0798,92.7488 40.5,90.5 Z"/></g>
<g><path style="opacity:0.306" fill="#635730" d="M 414.5,91.5 C 416.5,91.5 417.5,92.5 417.5,94.5C 416.167,93.8333 415.167,92.8333 414.5,91.5 Z"/></g>
<g><path style="opacity:0.659" fill="#8c2b84" d="M 16.5,88.5 C 14.5,91.1667 12.1667,93.5 9.5,95.5C 10.8333,92.1667 13.1667,89.8333 16.5,88.5 Z"/></g>
<g><path style="opacity:0.592" fill="#897328" d="M 147.5,94.5 C 152.43,95.2589 157.097,96.5922 161.5,98.5C 156.46,98.1496 151.794,96.8163 147.5,94.5 Z"/></g>
<g><path style="opacity:1" fill="#8c3485" d="M 44.5,95.5 C 47.0783,99.3371 48.4116,103.67 48.5,108.5C 46.6177,104.548 45.2844,100.214 44.5,95.5 Z"/></g>
<g><path style="opacity:0.31" fill="#575c3f" d="M 161.5,98.5 C 169.167,98.5 176.833,98.5 184.5,98.5C 187.5,98.5 190.5,98.5 193.5,98.5C 197.514,98.3345 201.514,98.5012 205.5,99C 206.056,99.3826 206.389,99.8826 206.5,100.5C 191.372,99.864 176.372,99.1974 161.5,98.5 Z"/></g>
<g><path style="opacity:0.365" fill="#902b83" d="M 79.5,85.5 C 79.8333,85.5 80.1667,85.5 80.5,85.5C 81.404,86.209 81.7373,87.209 81.5,88.5C 80.8333,93.8333 80.1667,99.1667 79.5,104.5C 79.5,98.1667 79.5,91.8333 79.5,85.5 Z"/></g>
<g><path style="opacity:0.312" fill="#783172" d="M 9.5,95.5 C 7.89845,101.713 7.23178,108.046 7.5,114.5C 6.35159,110.019 6.18492,105.352 7,100.5C 7.09946,98.3474 7.9328,96.6808 9.5,95.5 Z"/></g>
<g><path style="opacity:0.267" fill="#37626c" d="M 206.5,100.5 C 208.411,100.574 209.578,101.574 210,103.5C 212.149,111.901 208.982,116.235 200.5,116.5C 199.833,116.5 199.167,116.5 198.5,116.5C 198.5,116.167 198.5,115.833 198.5,115.5C 209.327,114.846 211.994,109.846 206.5,100.5 Z"/></g>
<g><path style="opacity:0.439" fill="#773771" d="M 78.5,108.5 C 77.8333,111.167 76.1667,112.833 73.5,113.5C 74.8333,111.5 76.5,109.833 78.5,108.5 Z"/></g>
<g><path style="opacity:0.554" fill="#923886" d="M 73.5,113.5 C 73.0472,114.458 72.3805,115.292 71.5,116C 68.5,116.167 65.5,116.333 62.5,116.5C 59.0866,116.483 56.0866,115.816 53.5,114.5C 60.4925,115.813 67.1592,115.48 73.5,113.5 Z"/></g>
<g><path style="opacity:0.204" fill="#633a5f" d="M 198.5,115.5 C 198.5,115.833 198.5,116.167 198.5,116.5C 195.833,116.5 193.167,116.5 190.5,116.5C 175.471,116.232 160.471,116.566 145.5,117.5C 146.263,116.732 147.263,116.232 148.5,116C 165.163,115.5 181.83,115.333 198.5,115.5 Z"/></g>
<g><path style="opacity:0.478" fill="#957d25" d="M 291.5,106.5 C 293.505,111.323 297.172,114.157 302.5,115C 308.864,116.141 314.864,115.308 320.5,112.5C 319.657,114.173 318.324,115.34 316.5,116C 310.306,116.727 304.14,116.561 298,115.5C 294.065,113.737 291.898,110.737 291.5,106.5 Z"/></g>
<g><path style="opacity:0.225" fill="#2e6670" d="M 402.5,76.5 C 404.587,77.5846 405.92,79.2512 406.5,81.5C 405.85,81.1961 405.183,80.8627 404.5,80.5C 403.667,100.158 403.167,119.825 403,139.5C 402.246,142.684 400.746,145.351 398.5,147.5C 399.562,144.484 400.729,141.484 402,138.5C 402.5,117.836 402.667,97.1694 402.5,76.5 Z"/></g>
<g><path style="opacity:1" fill="#f806f8" d="M 190.5,116.5 C 175.958,123.36 172.458,134.027 180,148.5C 184.708,154.601 190.874,156.934 198.5,155.5C 198.5,155.833 198.5,156.167 198.5,156.5C 182.163,156.667 165.83,156.5 149.5,156C 147.148,155.76 145.148,154.927 143.5,153.5C 142.415,151.413 140.749,150.08 138.5,149.5C 137.892,146.594 136.559,144.26 134.5,142.5C 134.5,142.167 134.5,141.833 134.5,141.5C 134.5,137.833 134.5,134.167 134.5,130.5C 136.42,126.34 139.087,122.673 142.5,119.5C 144.027,119.573 145.027,118.906 145.5,117.5C 160.471,116.566 175.471,116.232 190.5,116.5 Z"/></g>
<g><path style="opacity:1" fill="#2a05fd" d="M 190.5,116.5 C 193.167,116.5 195.833,116.5 198.5,116.5C 199.167,116.5 199.833,116.5 200.5,116.5C 204.685,118.494 208.518,121.161 212,124.5C 218.396,137.808 215.23,148.142 202.5,155.5C 201.167,155.5 199.833,155.5 198.5,155.5C 190.874,156.934 184.708,154.601 180,148.5C 172.458,134.027 175.958,123.36 190.5,116.5 Z"/></g>
<g><path style="opacity:0.651" fill="#912c8a" d="M 7.5,115.5 C 9.16276,117.438 9.82943,119.772 9.5,122.5C 8.38815,120.401 7.72148,118.067 7.5,115.5 Z"/></g>
<g><path style="opacity:0.443" fill="#763471" d="M 145.5,117.5 C 145.027,118.906 144.027,119.573 142.5,119.5C 142.973,118.094 143.973,117.427 145.5,117.5 Z"/></g>
<g><path style="opacity:0.024" fill="#673362" d="M 118.5,117.5 C 117.82,122.522 115.82,126.856 112.5,130.5C 114.264,125.978 116.264,121.645 118.5,117.5 Z"/></g>
<g><path style="opacity:0.255" fill="#5f285a" d="M 9.5,122.5 C 10.9313,123.78 11.5979,125.447 11.5,127.5C 10.0687,126.22 9.40206,124.553 9.5,122.5 Z"/></g>
<g><path style="opacity:0.353" fill="#793273" d="M 142.5,119.5 C 139.087,122.673 136.42,126.34 134.5,130.5C 134.97,125.224 137.637,121.557 142.5,119.5 Z"/></g>
<g><path style="opacity:0.161" fill="#3c605f" d="M 362.5,110.5 C 362.833,110.5 363.167,110.5 363.5,110.5C 363.287,121.527 363.62,132.527 364.5,143.5C 363.732,142.737 363.232,141.737 363,140.5C 362.667,135.167 362.333,129.833 362,124.5C 361.667,124.167 361.333,123.833 361,123.5C 360.722,124.416 360.222,125.082 359.5,125.5C 360.975,120.6 361.975,115.6 362.5,110.5 Z"/></g>
<g><path style="opacity:1" fill="#ac8d25" d="M 255.5,126.5 C 258.702,128.636 260.702,131.636 261.5,135.5C 258.759,133.025 256.759,130.025 255.5,126.5 Z"/></g>
<g><path style="opacity:0.569" fill="#8c4084" d="M 134.5,130.5 C 134.5,134.167 134.5,137.833 134.5,141.5C 132.124,137.88 132.124,134.213 134.5,130.5 Z"/></g>
<g><path style="opacity:0.831" fill="#8d7829" d="M 261.5,135.5 C 264.452,137.785 267.118,140.452 269.5,143.5C 265.855,141.855 263.188,139.188 261.5,135.5 Z"/></g>
<g><path style="opacity:0.412" fill="#7f3878" d="M 15.5,134.5 C 17.4456,135.035 18.4456,136.368 18.5,138.5C 17.0256,137.564 16.0256,136.23 15.5,134.5 Z"/></g>
<g><path style="opacity:0.02" fill="#655a3d" d="M 350.5,139.5 C 350.167,141.833 348.833,143.167 346.5,143.5C 347.5,141.833 348.833,140.5 350.5,139.5 Z"/></g>
<g><path style="opacity:0.714" fill="#8b3182" d="M 22.5,142.5 C 24.7488,143.08 26.4154,144.413 27.5,146.5C 25.2512,145.92 23.5846,144.587 22.5,142.5 Z"/></g>
<g><path style="opacity:0.71" fill="#903389" d="M 134.5,142.5 C 136.559,144.26 137.892,146.594 138.5,149.5C 136.412,147.664 135.079,145.331 134.5,142.5 Z"/></g>
<g><path style="opacity:0.008" fill="#7b5c28" d="M 461.5,146.5 C 463.262,147.262 464.262,148.596 464.5,150.5C 462.738,149.738 461.738,148.404 461.5,146.5 Z"/></g>
<g><path style="opacity:0.157" fill="#5d5224" d="M 274.5,147.5 C 276.027,147.427 277.027,148.094 277.5,149.5C 275.973,149.573 274.973,148.906 274.5,147.5 Z"/></g>
<g><path style="opacity:0.176" fill="#742f6e" d="M 30.5,148.5 C 32.0269,148.427 33.0269,149.094 33.5,150.5C 31.9731,150.573 30.9731,149.906 30.5,148.5 Z"/></g>
<g><path style="opacity:0.686" fill="#83357b" d="M 138.5,149.5 C 140.749,150.08 142.415,151.413 143.5,153.5C 141.251,152.92 139.585,151.587 138.5,149.5 Z"/></g>
<g><path style="opacity:0.008" fill="#7c5a16" d="M 494.5,148.5 C 494.167,150.833 492.833,152.167 490.5,152.5C 491.5,150.833 492.833,149.5 494.5,148.5 Z"/></g>
<g><path style="opacity:0.239" fill="#785032" d="M 467.5,152.5 C 469.027,152.427 470.027,153.094 470.5,154.5C 468.973,154.573 467.973,153.906 467.5,152.5 Z"/></g>
<g><path style="opacity:0.222" fill="#335860" d="M 198.5,156.5 C 198.5,156.167 198.5,155.833 198.5,155.5C 199.833,155.5 201.167,155.5 202.5,155.5C 205.5,155.5 208.5,155.5 211.5,155.5C 208.305,156.236 204.971,156.903 201.5,157.5C 200.583,156.873 199.583,156.539 198.5,156.5 Z"/></g>
<g><path style="opacity:0.314" fill="#8f4e27" d="M 490.5,152.5 C 489.025,154.41 487.025,155.576 484.5,156C 480.833,156.667 477.167,156.667 473.5,156C 472.263,155.768 471.263,155.268 470.5,154.5C 477.361,155.801 484.028,155.134 490.5,152.5 Z"/></g>
</svg>
